;TYPE=PLATED
;Layer: PTH_Through
;EasyEDA Pro v3.2.91, 2026-03-21 00:40:43
;Gerber Generator version 0.3
M48
METRIC,LZ,0000.00000
;Hole size 1 = 0.30500 METRIC
T01C0.30500
;Hole size 2 = 0.59944 METRIC
T02C0.59944
%
G05
G90
T01
X14.986Y-7.62
X16.891Y-11.811
X16.51Y-5.842
X12.35989Y-5.715
X13.01013Y-5.207
X13.07503Y2.3778
X14.97698Y3.6958
X8.001Y-3.429
X14.097Y-6.731
X19.431Y-15.113
X7.239Y-1.778
X17.653Y-2.54
X13.04717Y-12.573
X12.319Y-13.335
X12.573Y-7.874
X19.177Y1.778
X19.177Y2.54086
X6.41198Y-13.462
X16.81646Y-14.55254
X9.525Y-2.921
X17.86844Y-4.82861
X19.939Y-13.335
X19.91278Y-9.60344
T02
X17.27454Y4.49834G85X17.27454Y3.8989
X8.63346Y4.49834G85X8.63346Y3.8989
X17.27454Y0.61849G85X17.27454Y-0.58293
X8.63346Y0.61849G85X8.63346Y-0.58293
M30