G04 Layer: BottomLayer*
G04 EasyEDA Pro v3.2.91, 2026-03-21 00:40:43*
G04 Gerber Generator version 0.3*
G04 Scale: 100 percent, Rotated: No, Reflected: No*
G04 Dimensions in millimeters*
G04 Leading zeros omitted, absolute positions, 4 integers and 5 decimals*
G04 Generated by one-click*
%FSLAX45Y45*%
%MOMM*%
%ADD10C,0.2032*%
%ADD11C,0.254*%
%ADD12R,1.3X0.7*%
%ADD13R,0.59944X1.45034*%
%ADD14R,0.29972X1.45034*%
%ADD15O,1.0025X1.6002*%
%ADD16O,1.00076X1.6002*%
%ADD17O,1.00076X2.10058*%
%ADD18O,1.6X3.79999*%
%ADD19C,0.61*%
%ADD20C,0.4572*%
%ADD21C,0.3556*%
%ADD22C,0.4064*%
G75*


G04 Copper Start*
G36*
G01X2059686Y-695788D02*
G01X2059686Y-1325148D01*
G01X2056544Y-1311745D01*
G01X2050703Y-1299280D01*
G01X2042414Y-1288290D01*
G01X2042414Y-1257300D01*
G01X2040761Y-1244744D01*
G01X2035914Y-1233043D01*
G01X2028205Y-1222995D01*
G01X1874814Y-1069605D01*
G01X1874814Y-925054D01*
G01X1873161Y-912498D01*
G01X1868314Y-900797D01*
G01X1860604Y-890749D01*
G01X1835358Y-865503D01*
G01X1835358Y-528071D01*
G01X1844420Y-515763D01*
G01X1850423Y-501708D01*
G01X1853049Y-486652D01*
G01X1852159Y-471394D01*
G01X1847799Y-456745D01*
G01X1840201Y-443484D01*
G01X1829768Y-432314D01*
G01X1817056Y-423829D01*
G01X1802739Y-418480D01*
G01X1882989Y-338230D01*
G01X1892313Y-326078D01*
G01X1898175Y-311927D01*
G01X1900174Y-296741D01*
G01X1900174Y-37004D01*
G01X1933789Y-3389D01*
G01X1939441Y3167D01*
G01X1944068Y10482D01*
G01X1957393Y23807D01*
G01X1966313Y35433D01*
G01X1971921Y48971D01*
G01X1973834Y63500D01*
G01X1973834Y142494D01*
G01X1980287Y155881D01*
G01X1983596Y170369D01*
G01X1983596Y185231D01*
G01X1980287Y199719D01*
G01X1973834Y213106D01*
G01X1973834Y218780D01*
G01X1980553Y232941D01*
G01X1983760Y248284D01*
G01X1983276Y263950D01*
G01X1979129Y279066D01*
G01X1971551Y292786D01*
G01X1960963Y304344D01*
G01X1947959Y313094D01*
G01X1933264Y318548D01*
G01X1917700Y320400D01*
G01X1902136Y318548D01*
G01X1887441Y313094D01*
G01X1874437Y304344D01*
G01X1863849Y292786D01*
G01X1856271Y279066D01*
G01X1852124Y263950D01*
G01X1851640Y248284D01*
G01X1854847Y232941D01*
G01X1861566Y218780D01*
G01X1861566Y213106D01*
G01X1854931Y199192D01*
G01X1842301Y204266D01*
G01X1828800Y205994D01*
G01X1536700Y205994D01*
G01X1522829Y204168D01*
G01X1509903Y198814D01*
G01X1498803Y190297D01*
G01X1451001Y142494D01*
G01X1104900Y142494D01*
G01X1091029Y140668D01*
G01X1078103Y135314D01*
G01X1067003Y126797D01*
G01X1046360Y106153D01*
G01X1034339Y115376D01*
G01X1020633Y121833D01*
G01X1005868Y125229D01*
G01X990718Y125409D01*
G01X975876Y122364D01*
G01X962020Y116233D01*
G01X949785Y107297D01*
G01X939728Y95965D01*
G01X930140Y110706D01*
G01X917749Y123184D01*
G01X903075Y132875D01*
G01X886735Y139374D01*
G01X869413Y142406D01*
G01X851837Y141846D01*
G01X834744Y137716D01*
G01X818850Y130190D01*
G01X804824Y119584D01*
G01X793253Y106342D01*
G01X784622Y91020D01*
G01X779295Y74262D01*
G01X777494Y56769D01*
G01X777494Y-53213D01*
G01X779388Y-71149D01*
G01X784988Y-88293D01*
G01X794046Y-103889D01*
G01X806163Y-117249D01*
G01X820803Y-127783D01*
G01X837320Y-135025D01*
G01X854987Y-138657D01*
G01X873022Y-138518D01*
G01X890630Y-134614D01*
G01X907034Y-127118D01*
G01X907034Y-162179D01*
G01X907415Y-167386D01*
G01X789391Y-167386D01*
G01X785393Y-152977D01*
G01X778268Y-139830D01*
G01X768378Y-128614D01*
G01X756227Y-119899D01*
G01X742433Y-114128D01*
G01X727695Y-111595D01*
G01X712765Y-112427D01*
G01X698401Y-116584D01*
G01X685334Y-123854D01*
G01X674227Y-133866D01*
G01X665647Y-146112D01*
G01X660028Y-159970D01*
G01X657657Y-174734D01*
G01X658654Y-189654D01*
G01X662969Y-203971D01*
G01X670382Y-216958D01*
G01X680516Y-227953D01*
G01X692856Y-236399D01*
G01X706774Y-241865D01*
G01X721564Y-244073D01*
G01X727695Y-250205D01*
G01X737743Y-257914D01*
G01X749444Y-262761D01*
G01X762000Y-264414D01*
G01X1133522Y-264414D01*
G01X1146079Y-262761D01*
G01X1157779Y-257914D01*
G01X1167827Y-250205D01*
G01X1189696Y-228335D01*
G01X1204126Y-242765D01*
G01X1214174Y-250475D01*
G01X1225874Y-255321D01*
G01X1238431Y-256975D01*
G01X1272286Y-256975D01*
G01X1272286Y-460931D01*
G01X1259849Y-468709D01*
G01X1249426Y-479032D01*
G01X1241527Y-491393D01*
G01X1236539Y-505188D01*
G01X1223227Y-506426D01*
G01X1210433Y-510308D01*
G01X1198678Y-516678D01*
G01X1188440Y-525277D01*
G01X1180134Y-535754D01*
G01X1174099Y-547685D01*
G01X1170580Y-560583D01*
G01X1169720Y-573925D01*
G01X1161884Y-571063D01*
G01X1153598Y-570092D01*
G01X1023598Y-570092D01*
G01X1012531Y-571844D01*
G01X1002547Y-576931D01*
G01X994624Y-584855D01*
G01X989537Y-594838D01*
G01X987784Y-605906D01*
G01X987784Y-675905D01*
G01X989537Y-686973D01*
G01X994624Y-696956D01*
G01X1002547Y-704880D01*
G01X1012531Y-709967D01*
G01X1023598Y-711719D01*
G01X1139163Y-711719D01*
G01X1131645Y-726184D01*
G01X1127884Y-742046D01*
G01X1128106Y-758346D01*
G01X1132298Y-774099D01*
G01X1140206Y-788354D01*
G01X1140206Y-863600D01*
G01X1142032Y-877471D01*
G01X1147386Y-890397D01*
G01X1155903Y-901497D01*
G01X1495806Y-1241399D01*
G01X1495806Y-1425633D01*
G01X1478144Y-1437002D01*
G01X1462826Y-1451373D01*
G01X1450355Y-1468276D01*
G01X1441143Y-1487152D01*
G01X1435491Y-1507382D01*
G01X1433586Y-1528300D01*
G01X1433586Y-1748300D01*
G01X1435052Y-1766668D01*
G01X1439413Y-1784571D01*
G01X1446557Y-1801556D01*
G01X1456306Y-1817193D01*
G01X1468411Y-1831086D01*
G01X1376389Y-1831086D01*
G01X1388494Y-1817193D01*
G01X1398243Y-1801556D01*
G01X1405387Y-1784571D01*
G01X1409748Y-1766668D01*
G01X1411214Y-1748300D01*
G01X1411214Y-1528300D01*
G01X1409189Y-1506739D01*
G01X1403185Y-1485931D01*
G01X1393413Y-1466605D01*
G01X1380213Y-1449436D01*
G01X1364048Y-1435025D01*
G01X1345482Y-1423875D01*
G01X1325165Y-1416377D01*
G01X1303808Y-1412792D01*
G01X1339022Y-1377577D01*
G01X1346732Y-1367530D01*
G01X1351578Y-1355829D01*
G01X1353232Y-1343273D01*
G01X1353232Y-1302510D01*
G01X1362091Y-1290555D01*
G01X1368061Y-1276925D01*
G01X1370842Y-1262307D01*
G01X1370294Y-1247436D01*
G01X1366444Y-1233063D01*
G01X1359485Y-1219910D01*
G01X1349770Y-1208639D01*
G01X1337785Y-1199819D01*
G01X1324136Y-1193893D01*
G01X1309509Y-1191159D01*
G01X1294641Y-1191756D01*
G01X1280280Y-1195653D01*
G01X1267149Y-1202654D01*
G01X1255911Y-1212406D01*
G01X1247129Y-1224419D01*
G01X1241248Y-1238088D01*
G01X1238562Y-1252723D01*
G01X1239207Y-1267590D01*
G01X1224967Y-1267549D01*
G01X1211048Y-1270550D01*
G01X1198089Y-1276453D01*
G01X1186690Y-1284986D01*
G01X889000Y-1284986D01*
G01X876444Y-1286639D01*
G01X864743Y-1291486D01*
G01X854695Y-1299195D01*
G01X753095Y-1400795D01*
G01X745431Y-1410765D01*
G01X740586Y-1422370D01*
G01X723827Y-1431495D01*
G01X708794Y-1443248D01*
G01X695895Y-1457310D01*
G01X685480Y-1473299D01*
G01X677832Y-1490782D01*
G01X673158Y-1509283D01*
G01X671586Y-1528300D01*
G01X671586Y-1748300D01*
G01X673052Y-1766668D01*
G01X677413Y-1784571D01*
G01X684557Y-1801556D01*
G01X694306Y-1817193D01*
G01X706411Y-1831086D01*
G01X556514Y-1831086D01*
G01X556514Y-707380D01*
G01X564787Y-710618D01*
G01X573602Y-711719D01*
G01X703602Y-711719D01*
G01X714669Y-709967D01*
G01X724653Y-704880D01*
G01X732576Y-696956D01*
G01X737663Y-686973D01*
G01X739416Y-675905D01*
G01X739416Y-605906D01*
G01X737663Y-594838D01*
G01X732576Y-584855D01*
G01X724653Y-576931D01*
G01X714669Y-571844D01*
G01X703602Y-570092D01*
G01X573602Y-570092D01*
G01X564787Y-571193D01*
G01X556514Y-574431D01*
G01X556514Y-492369D01*
G01X564787Y-495607D01*
G01X573602Y-496708D01*
G01X703602Y-496708D01*
G01X714669Y-494956D01*
G01X724653Y-489869D01*
G01X732576Y-481945D01*
G01X737663Y-471962D01*
G01X739416Y-460894D01*
G01X739416Y-390895D01*
G01X737663Y-379827D01*
G01X732576Y-369844D01*
G01X724653Y-361920D01*
G01X714669Y-356833D01*
G01X703602Y-355081D01*
G01X573602Y-355081D01*
G01X564787Y-356182D01*
G01X556514Y-359420D01*
G01X556514Y-336999D01*
G01X734049Y-336999D01*
G01X734463Y-352350D01*
G01X738396Y-367194D01*
G01X745639Y-380736D01*
G01X755802Y-392248D01*
G01X768341Y-401114D01*
G01X782582Y-406859D01*
G01X797764Y-409173D01*
G01X848790Y-460199D01*
G01X858838Y-467909D01*
G01X870538Y-472755D01*
G01X883095Y-474408D01*
G01X990432Y-474408D01*
G01X990432Y-474408D01*
G01X995816Y-483494D01*
G01X1003615Y-490615D01*
G01X1013153Y-495151D01*
G01X1023598Y-496708D01*
G01X1153598Y-496708D01*
G01X1164665Y-494956D01*
G01X1174649Y-489869D01*
G01X1182572Y-481945D01*
G01X1187659Y-471962D01*
G01X1189412Y-460894D01*
G01X1189412Y-390895D01*
G01X1187659Y-379827D01*
G01X1182572Y-369844D01*
G01X1174649Y-361920D01*
G01X1164665Y-356833D01*
G01X1153598Y-355081D01*
G01X1023598Y-355081D01*
G01X1013153Y-356638D01*
G01X1003615Y-361174D01*
G01X995816Y-368295D01*
G01X990432Y-377380D01*
G01X903190Y-377380D01*
G01X866373Y-340564D01*
G01X864059Y-325382D01*
G01X858314Y-311141D01*
G01X849448Y-298602D01*
G01X837936Y-288439D01*
G01X824394Y-281196D01*
G01X809550Y-277263D01*
G01X794199Y-276849D01*
G01X779164Y-279978D01*
G01X765252Y-286480D01*
G01X753209Y-296009D01*
G01X743680Y-308052D01*
G01X737178Y-321964D01*
G01X734049Y-336999D01*
G01X556514Y-336999D01*
G01X556514Y235777D01*
G01X1241219Y235777D01*
G01X1243406Y220778D01*
G01X1248941Y206667D01*
G01X1257535Y194181D01*
G01X1268741Y183974D01*
G01X1281972Y176577D01*
G01X1296536Y172379D01*
G01X1311674Y171597D01*
G01X1326593Y174273D01*
G01X1340516Y180267D01*
G01X1352713Y189266D01*
G01X1355380Y189266D01*
G01X1364621Y190154D01*
G01X1373523Y192786D01*
G01X1460500Y192786D01*
G01X1460500Y192786D01*
G01X1473056Y194439D01*
G01X1484757Y199286D01*
G01X1494805Y206995D01*
G01X1532003Y244194D01*
G01X1539713Y254241D01*
G01X1544559Y265942D01*
G01X1546212Y278498D01*
G01X1546212Y324370D01*
G01X1555311Y336741D01*
G01X1561319Y350874D01*
G01X1563916Y366009D01*
G01X1562962Y381336D01*
G01X1558508Y396033D01*
G01X1550793Y409311D01*
G01X1540230Y420458D01*
G01X1527387Y428877D01*
G01X1512952Y434116D01*
G01X1497698Y435894D01*
G01X1482445Y434116D01*
G01X1468009Y428877D01*
G01X1455166Y420458D01*
G01X1444604Y409311D01*
G01X1436889Y396033D01*
G01X1432435Y381336D01*
G01X1431480Y366009D01*
G01X1434077Y350874D01*
G01X1440086Y336741D01*
G01X1449184Y324370D01*
G01X1449184Y298593D01*
G01X1440405Y289814D01*
G01X1358900Y289814D01*
G01X1349702Y288934D01*
G01X1336984Y297180D01*
G01X1322725Y302323D01*
G01X1307671Y304093D01*
G01X1292608Y302399D01*
G01X1278324Y297329D01*
G01X1265564Y289147D01*
G01X1254995Y278282D01*
G01X1247169Y265300D01*
G01X1242496Y250881D01*
G01X1241219Y235777D01*
G01X556514Y235777D01*
G01X556514Y389890D01*
G01X777494Y389890D01*
G01X779370Y372040D01*
G01X784916Y354971D01*
G01X793890Y339427D01*
G01X805900Y326090D01*
G01X820420Y315540D01*
G01X836816Y308240D01*
G01X854372Y304508D01*
G01X872320Y304508D01*
G01X889876Y308240D01*
G01X906272Y315540D01*
G01X920792Y326090D01*
G01X932802Y339427D01*
G01X941776Y354971D01*
G01X947322Y372040D01*
G01X949198Y389890D01*
G01X949198Y449834D01*
G01X1641602Y449834D01*
G01X1641602Y389890D01*
G01X1643478Y372040D01*
G01X1649024Y354971D01*
G01X1657998Y339427D01*
G01X1670008Y326090D01*
G01X1684528Y315540D01*
G01X1700924Y308240D01*
G01X1718480Y304508D01*
G01X1736428Y304508D01*
G01X1753984Y308240D01*
G01X1770380Y315540D01*
G01X1784900Y326090D01*
G01X1796910Y339427D01*
G01X1805884Y354971D01*
G01X1811430Y372040D01*
G01X1813306Y389890D01*
G01X1813306Y449834D01*
G01X1811430Y467684D01*
G01X1805884Y484753D01*
G01X1796910Y500297D01*
G01X1784900Y513634D01*
G01X1770380Y524184D01*
G01X1753984Y531484D01*
G01X1736428Y535216D01*
G01X1718480Y535216D01*
G01X1700924Y531484D01*
G01X1684528Y524184D01*
G01X1670008Y513634D01*
G01X1657998Y500297D01*
G01X1649024Y484753D01*
G01X1643478Y467684D01*
G01X1641602Y449834D01*
G01X1641602Y449834D01*
G01X949198Y449834D01*
G01X947322Y467684D01*
G01X941776Y484753D01*
G01X932802Y500297D01*
G01X920792Y513634D01*
G01X906272Y524184D01*
G01X889876Y531484D01*
G01X872320Y535216D01*
G01X854372Y535216D01*
G01X836816Y531484D01*
G01X820420Y524184D01*
G01X805900Y513634D01*
G01X793890Y500297D01*
G01X784916Y484753D01*
G01X779370Y467684D01*
G01X777494Y449834D01*
G01X777494Y449834D01*
G01X777494Y389890D01*
G01X556514Y389890D01*
G01X556514Y649986D01*
G01X2059686Y649986D01*
G01X2059686Y-371012D01*
G01X2051709Y-362488D01*
G01X2041416Y-356983D01*
G01X2029898Y-355081D01*
G01X1899898Y-355081D01*
G01X1888831Y-356833D01*
G01X1878847Y-361920D01*
G01X1870924Y-369844D01*
G01X1865837Y-379827D01*
G01X1864084Y-390895D01*
G01X1864084Y-460894D01*
G01X1865837Y-471962D01*
G01X1870924Y-481945D01*
G01X1878847Y-489869D01*
G01X1888831Y-494956D01*
G01X1899898Y-496708D01*
G01X2029898Y-496708D01*
G01X2041416Y-494806D01*
G01X2051709Y-489301D01*
G01X2059686Y-480777D01*
G01X2059686Y-586023D01*
G01X2051709Y-577499D01*
G01X2041416Y-571994D01*
G01X2029898Y-570092D01*
G01X1899898Y-570092D01*
G01X1888831Y-571844D01*
G01X1878847Y-576931D01*
G01X1870924Y-584855D01*
G01X1865837Y-594838D01*
G01X1864084Y-605906D01*
G01X1864084Y-675905D01*
G01X1865837Y-686973D01*
G01X1870924Y-696956D01*
G01X1878847Y-704880D01*
G01X1888831Y-709967D01*
G01X1899898Y-711719D01*
G01X2029898Y-711719D01*
G01X2041416Y-709817D01*
G01X2051709Y-704312D01*
G01X2059686Y-695788D01*
G37*
G36*
G01X1179586Y-1748300D02*
G01X1181052Y-1766668D01*
G01X1185413Y-1784571D01*
G01X1192557Y-1801556D01*
G01X1202306Y-1817193D01*
G01X1214411Y-1831086D01*
G01X1122389Y-1831086D01*
G01X1134494Y-1817193D01*
G01X1144243Y-1801556D01*
G01X1151387Y-1784571D01*
G01X1155748Y-1766668D01*
G01X1157214Y-1748300D01*
G01X1157214Y-1528300D01*
G01X1156164Y-1512742D01*
G01X1153034Y-1497465D01*
G01X1147879Y-1482748D01*
G01X1190212Y-1440414D01*
G01X1219975Y-1440414D01*
G01X1206023Y-1454648D01*
G01X1194719Y-1471063D01*
G01X1186396Y-1489174D01*
G01X1181301Y-1508443D01*
G01X1179586Y-1528300D01*
G01X1179586Y-1748300D01*
G37*
G36*
G01X1544095Y-205486D02*
G01X1536602Y-197993D01*
G01X1570482Y-197993D01*
G01X1578991Y-196967D01*
G01X1587500Y-197993D01*
G01X1647444Y-197993D01*
G01X1658511Y-196240D01*
G01X1668495Y-191153D01*
G01X1676418Y-183230D01*
G01X1681505Y-173246D01*
G01X1683258Y-162179D01*
G01X1683258Y-126815D01*
G01X1699325Y-134326D01*
G01X1716593Y-138375D01*
G01X1734324Y-138790D01*
G01X1751762Y-135552D01*
G01X1768163Y-128800D01*
G01X1782826Y-118822D01*
G01X1782826Y-190044D01*
G01X1769537Y-187821D01*
G01X1756074Y-188331D01*
G01X1742991Y-191551D01*
G01X1730829Y-197349D01*
G01X1720090Y-205486D01*
G01X1544095Y-205486D01*
G37*
G54D10*
G01X2059686Y-695788D02*
G01X2059686Y-1325148D01*
G03X2042414Y-1288290I-65786J-8352D01*
G01X2042414Y-1257300D01*
G03X2028205Y-1222995I-48514J0D01*
G01X1874814Y-1069605D01*
G01X1874814Y-925054D01*
G03X1860604Y-890749I-48514J0D01*
G01X1835358Y-865503D01*
G01X1835358Y-528071D01*
G03X1802739Y-418480I-48514J45210D01*
G01X1882989Y-338230D01*
G03X1900174Y-296741I-41489J41489D01*
G01X1900174Y-37004D01*
G01X1933789Y-3389D01*
G03X1944068Y10482I-41489J41489D01*
G01X1957393Y23807D01*
G03X1973834Y63500I-39693J39693D01*
G01X1973834Y142494D01*
G03X1973834Y213106I-56134J35306D01*
G01X1973834Y218780D01*
G03X1917700Y320400I-56134J35306D01*
G03X1861566Y218780I0J-66314D01*
G01X1861566Y213106D01*
G03X1854931Y199192I56134J-35306D01*
G03X1828800Y205994I-26131J-46792D01*
G01X1536700Y205994D01*
G03X1498803Y190297I0J-53594D01*
G01X1451001Y142494D01*
G01X1104900Y142494D01*
G03X1067003Y126797I0J-53594D01*
G01X1046360Y106153D01*
G03X939728Y95965I-48902J-51289D01*
G03X777494Y56769I-76382J-39196D01*
G01X777494Y-53213D01*
G03X907034Y-127118I85852J0D01*
G01X907034Y-162179D01*
G03X907415Y-167386I35814J0D01*
G01X789391Y-167386D01*
G03X674227Y-133866I-65491J-10414D01*
G03X721564Y-244073I49673J-43934D01*
G01X727695Y-250205D01*
G03X762000Y-264414I34305J34305D01*
G01X1133522Y-264414D01*
G03X1167827Y-250205I0J48514D01*
G01X1189696Y-228335D01*
G01X1204126Y-242765D01*
G03X1238431Y-256975I34305J34305D01*
G01X1272286Y-256975D01*
G01X1272286Y-460931D01*
G03X1236539Y-505188I28727J-59769D01*
G03X1188440Y-525277I-550J-66312D01*
G03X1169720Y-573925I47550J-46223D01*
G03X1153598Y-570092I-16122J-31980D01*
G01X1023598Y-570092D01*
G03X987784Y-605906I0J-35814D01*
G01X987784Y-675905D01*
G03X1023598Y-711719I35814J0D01*
G01X1139163Y-711719D01*
G03X1140206Y-788354I54637J-37581D01*
G01X1140206Y-863600D01*
G03X1155903Y-901497I53594J0D01*
G01X1495806Y-1241399D01*
G01X1495806Y-1425633D01*
G03X1433586Y-1528300I53594J-102667D01*
G01X1433586Y-1748300D01*
G03X1468411Y-1831086I115814J0D01*
G01X1376389Y-1831086D01*
G03X1411214Y-1748300I-80989J82786D01*
G01X1411214Y-1528300D01*
G03X1303808Y-1412792I-115814J0D01*
G01X1339022Y-1377577D01*
G03X1353232Y-1343273I-34305J34305D01*
G01X1353232Y-1302510D01*
G03X1324136Y-1193893I-48514J45210D01*
G03X1239207Y-1267590I-19419J-63407D01*
G03X1211048Y-1270550I-7307J-65910D01*
G03X1186690Y-1284986I20852J-62950D01*
G01X889000Y-1284986D01*
G03X854695Y-1299195I0J-48514D01*
G01X753095Y-1400795D01*
G03X740586Y-1422370I34305J-34305D01*
G03X671586Y-1528300I46814J-105931D01*
G01X671586Y-1748300D01*
G03X706411Y-1831086I115814J0D01*
G01X556514Y-1831086D01*
G01X556514Y-707380D01*
G03X573602Y-711719I17088J31475D01*
G01X703602Y-711719D01*
G03X739416Y-675905I0J35814D01*
G01X739416Y-605906D01*
G03X703602Y-570092I-35814J0D01*
G01X573602Y-570092D01*
G03X556514Y-574431I0J-35814D01*
G01X556514Y-492369D01*
G03X573602Y-496708I17088J31475D01*
G01X703602Y-496708D01*
G03X739416Y-460894I0J35814D01*
G01X739416Y-390895D01*
G03X703602Y-355081I-35814J0D01*
G01X573602Y-355081D01*
G03X556514Y-359420I0J-35814D01*
G01X556514Y649986D01*
G01X2059686Y649986D01*
G01X2059686Y-371012D01*
G03X2029898Y-355081I-29788J-19883D01*
G01X1899898Y-355081D01*
G03X1864084Y-390895I0J-35814D01*
G01X1864084Y-460894D01*
G03X1899898Y-496708I35814J0D01*
G01X2029898Y-496708D01*
G03X2059686Y-480777I0J35814D01*
G01X2059686Y-586023D01*
G03X2029898Y-570092I-29788J-19883D01*
G01X1899898Y-570092D01*
G03X1864084Y-605906I0J-35814D01*
G01X1864084Y-675905D01*
G03X1899898Y-711719I35814J0D01*
G01X2029898Y-711719D01*
G03X2059686Y-695788I0J35814D01*
G01X990432Y-474408D02*
G03X1023598Y-496708I33166J13514D01*
G01X1153598Y-496708D01*
G03X1189412Y-460894I0J35814D01*
G01X1189412Y-390895D01*
G03X1153598Y-355081I-35814J0D01*
G01X1023598Y-355081D01*
G03X990432Y-377380I0J-35814D01*
G01X903190Y-377380D01*
G01X866373Y-340564D01*
G03X753209Y-296009I-66273J-2336D01*
G03X797764Y-409173I46891J-46891D01*
G01X848790Y-460199D01*
G03X883095Y-474408I34305J34305D01*
G01X990432Y-474408D01*
G01X777494Y449834D02*
G01X777494Y389890D01*
G03X949198Y389890I85852J0D01*
G01X949198Y449834D01*
G03X777494Y449834I-85852J0D01*
G01X1460500Y192786D02*
G03X1494805Y206995I0J48514D01*
G01X1532003Y244194D01*
G03X1546212Y278498I-34305J34305D01*
G01X1546212Y324370D01*
G03X1497698Y435894I-48514J45210D01*
G03X1449184Y324370I0J-66314D01*
G01X1449184Y298593D01*
G01X1440405Y289814D01*
G01X1358900Y289814D01*
G03X1349702Y288934I0J-48514D01*
G03X1241219Y235777I-42199J-51155D01*
G03X1352713Y189266I66284J2002D01*
G01X1355380Y189266D01*
G03X1373523Y192786I0J48514D01*
G01X1460500Y192786D01*
G01X1641602Y449834D02*
G01X1641602Y389890D01*
G03X1813306Y389890I85852J0D01*
G01X1813306Y449834D01*
G03X1641602Y449834I-85852J0D01*
G01X1179586Y-1748300D02*
G03X1214411Y-1831086I115814J0D01*
G01X1122389Y-1831086D01*
G03X1157214Y-1748300I-80989J82786D01*
G01X1157214Y-1528300D01*
G03X1147879Y-1482748I-115814J0D01*
G01X1190212Y-1440414D01*
G01X1219975Y-1440414D01*
G03X1179586Y-1528300I75425J-87886D01*
G01X1179586Y-1748300D01*
G01X1544095Y-205486D02*
G01X1536602Y-197993D01*
G01X1570482Y-197993D01*
G03X1578991Y-196967I0J35814D01*
G03X1587500Y-197993I8509J34788D01*
G01X1647444Y-197993D01*
G03X1683258Y-162179I0J35814D01*
G01X1683258Y-126815D01*
G03X1782826Y-118822I44196J73602D01*
G01X1782826Y-190044D01*
G03X1720090Y-205486I-17526J-63956D01*
G01X1544095Y-205486D01*
G54D11*
G01X863346Y1778D02*
G01X787654Y1778D01*
G01X863346Y1778D02*
G01X863346Y132461D01*
G01X863346Y1778D02*
G01X863346Y-128905D01*
G01X863346Y419862D02*
G01X787654Y419862D01*
G01X863346Y419862D02*
G01X939038Y419862D01*
G01X863346Y419862D02*
G01X863346Y525526D01*
G01X863346Y419862D02*
G01X863346Y314198D01*
G01X1727454Y1778D02*
G01X1727454Y-128905D01*
G01X1727454Y419862D02*
G01X1651762Y419862D01*
G01X1727454Y419862D02*
G01X1803146Y419862D01*
G01X1727454Y419862D02*
G01X1727454Y525526D01*
G01X1727454Y419862D02*
G01X1727454Y314198D01*
G01X1617472Y-89662D02*
G01X1617472Y-187833D01*
G01X638602Y-640905D02*
G01X638602Y-701559D01*
G01X638602Y-640905D02*
G01X638602Y-580252D01*
G01X638602Y-640905D02*
G01X729256Y-640905D01*
G01X1964898Y-425894D02*
G01X1964898Y-365241D01*
G01X1964898Y-425894D02*
G01X1964898Y-486548D01*
G01X1964898Y-425894D02*
G01X1874244Y-425894D01*
G01X1295400Y-1638300D02*
G01X1189746Y-1638300D01*
G01X1295400Y-1638300D02*
G01X1401054Y-1638300D01*
G04 Copper End*

G04 Pad Start*
G54D12*
G01X1514902Y-640905D03*
G01X1964898Y-640905D03*
G01X1514902Y-425894D03*
G01X1964898Y-425894D03*
G01X1088598Y-425894D03*
G01X638602Y-425894D03*
G01X1088598Y-640905D03*
G01X638602Y-640905D03*
G54D13*
G01X1617472Y-89662D03*
G01X1540510Y-89662D03*
G54D14*
G01X1470406Y-89662D03*
G01X1420368Y-89662D03*
G01X1370330Y-89662D03*
G01X1320292Y-89662D03*
G01X1270508Y-89662D03*
G01X1220470Y-89662D03*
G01X1170432Y-89662D03*
G01X1120394Y-89662D03*
G54D13*
G01X1050290Y-89662D03*
G01X972820Y-89662D03*
G54D16*
G01X1727454Y419862D03*
G01X863346Y419862D03*
G54D17*
G01X1727454Y1778D03*
G01X863346Y1778D03*
G54D18*
G01X1803400Y-1638300D03*
G01X1549400Y-1638300D03*
G01X1295400Y-1638300D03*
G01X1041400Y-1638300D03*
G01X787400Y-1638300D03*
G04 Pad End*

G04 Via Start*
G54D19*
G01X1498600Y-762000D03*
G01X1689100Y-1181100D03*
G01X1651000Y-584200D03*
G01X1235989Y-571500D03*
G01X1301013Y-520700D03*
G01X1307503Y237780D03*
G01X1497698Y369580D03*
G01X800100Y-342900D03*
G01X1409700Y-673100D03*
G01X1943100Y-1511300D03*
G01X723900Y-177800D03*
G01X1765300Y-254000D03*
G01X1304717Y-1257300D03*
G01X1231900Y-1333500D03*
G01X1257300Y-787400D03*
G01X1917700Y177800D03*
G01X1917700Y254086D03*
G01X641198Y-1346200D03*
G01X1681646Y-1455254D03*
G01X952500Y-292100D03*
G01X1786844Y-482861D03*
G01X1993900Y-1333500D03*
G01X1991278Y-960344D03*
G04 Via End*

G04 Track Start*
G54D11*
G01X1498600Y-762000D02*
G01X1689100Y-952500D01*
G01X1689100Y-1181100D01*
G01X1320800Y-90170D02*
G01X1320292Y-89662D01*
G01X1220470Y-89662D02*
G01X1220470Y-190500D01*
G01X1238431Y-208461D01*
G01X1315539Y-208461D01*
G01X1320800Y-203200D01*
G01X1320800Y-90170D01*
G01X1270508Y-89662D02*
G01X1270508Y508D01*
G01X1295400Y25400D01*
G01X1346200Y25400D01*
G01X1370330Y1270D01*
G01X1370330Y-89662D01*
G01X1261389Y-596900D02*
G01X1235989Y-571500D01*
G01X1497698Y369580D02*
G01X1497698Y278498D01*
G01X1460500Y241300D01*
G01X1358900Y241300D01*
G01X1514902Y-640905D02*
G01X1441895Y-640905D01*
G01X1409700Y-673100D01*
G01X1651000Y-584200D02*
G01X1651000Y-800100D01*
G01X1790700Y-939800D01*
G01X1470406Y-89662D02*
G01X1470406Y-200406D01*
G01X1524000Y-254000D02*
G01X1765300Y-254000D01*
G01X1470406Y-200406D02*
G01X1524000Y-254000D01*
G01X787400Y-1638300D02*
G01X787400Y-1435100D01*
G01X889000Y-1333500D01*
G01X1231900Y-1333500D01*
G01X1790700Y-939800D02*
G01X1790700Y-1168400D01*
G54D20*
G01X1803400Y-1638300D02*
G01X1803400Y-1320800D01*
G01X1739900Y-1257300D01*
G01X1456471Y-529371D02*
G01X1608871Y-529371D01*
G01X1841500Y-296741D01*
G01X1841500Y-12700D02*
G01X1892300Y38100D01*
G01X1841500Y-296741D02*
G01X1841500Y-12700D01*
G54D11*
G01X1041400Y-1520617D02*
G01X1041400Y-1638300D01*
G01X1170117Y-1391900D02*
G01X1041400Y-1520617D01*
G01X1304717Y-1257300D02*
G01X1304717Y-1343273D01*
G01X1256090Y-1391900D01*
G01X1170117Y-1391900D01*
G54D21*
G01X1050290Y-89662D02*
G01X1050290Y-9446D01*
G01X1080290Y20554D01*
G54D11*
G01X1358900Y241300D02*
G01X1355380Y237780D01*
G01X1307503Y237780D01*
G54D21*
G01X1473200Y88900D02*
G01X1510510Y51590D01*
G01X1510510Y20554D01*
G01X1540510Y-9446D01*
G01X1540510Y-89662D01*
G01X1104900Y88900D02*
G01X1080290Y64290D01*
G01X1080290Y20554D01*
G01X1104900Y88900D02*
G01X1473200Y88900D01*
G01X1536700Y152400D01*
G01X1828800Y152400D01*
G01X1892300Y88900D01*
G01X1892300Y38100D01*
G54D22*
G01X1917700Y63500D02*
G01X1892300Y38100D01*
G01X1917700Y254086D02*
G01X1917700Y177800D01*
G54D21*
G01X1892300Y88900D02*
G01X1917700Y114300D01*
G54D22*
G01X1917700Y177800D02*
G01X1917700Y114300D01*
G01X1917700Y63500D01*
G54D20*
G01X1668341Y-1257300D02*
G01X1739900Y-1257300D01*
G54D11*
G01X1681646Y-1455254D02*
G01X1549400Y-1587500D01*
G54D21*
G01X1549400Y-1638300D02*
G01X1549400Y-1587500D01*
G01X1549400Y-1219200D01*
G54D11*
G01X1170432Y-89662D02*
G01X1170432Y-178990D01*
G01X1133522Y-215900D01*
G01X762000Y-215900D02*
G01X723900Y-177800D01*
G01X762000Y-215900D02*
G01X1133522Y-215900D01*
G01X1088598Y-425894D02*
G01X883095Y-425894D01*
G01X800100Y-342900D01*
G01X972820Y-89662D02*
G01X881380Y1778D01*
G01X863346Y1778D01*
G01X1786844Y-482861D02*
G01X1786844Y-885598D01*
G01X1826300Y-925054D01*
G01X1826300Y-1089700D01*
G01X1790700Y-1168400D02*
G01X1905000Y-1282700D01*
G01X1826300Y-1089700D02*
G01X1993900Y-1257300D01*
G01X1993900Y-1333500D01*
G01X1905000Y-1282700D02*
G01X1905000Y-1371600D01*
G01X1943100Y-1409700D01*
G01X1943100Y-1511300D01*
G54D20*
G01X1456471Y-529371D02*
G01X1341140Y-644702D01*
G01X1341140Y-930098D01*
G01X1668341Y-1257300D01*
G54D21*
G01X1549400Y-1219200D02*
G01X1257300Y-927100D01*
G01X1257300Y-787400D01*
G54D11*
G01X1301013Y-520700D02*
G01X1320800Y-500913D01*
G01X1320800Y-203200D01*
G01X1370330Y-89662D02*
G01X1370330Y-547370D01*
G01X1320800Y-596900D01*
G01X1261389Y-596900D01*
G04 Track End*

M02*

