G04 Layer: TopSilkscreenLayer*
G04 EasyEDA Pro v3.2.91, 2026-03-21 00:40:43*
G04 Gerber Generator version 0.3*
G04 Scale: 100 percent, Rotated: No, Reflected: No*
G04 Dimensions in millimeters*
G04 Leading zeros omitted, absolute positions, 4 integers and 5 decimals*
G04 Generated by one-click*
%FSLAX45Y45*%
%MOMM*%
%ADD10C,0.254*%
%ADD11C,0.1524*%
%ADD12C,0.15001*%
%ADD13C,0.1016*%
%ADD14C,0.15199*%
%ADD15C,0.3030*%
%ADD16C,0.3*%
G75*


G04 PolygonModel Start*
G54D10*
G01X863201Y-480964D02*
G01X863201Y-560967D01*
G01X752226Y-449979D02*
G01X832223Y-449979D01*
G01X752226Y-591944D02*
G01X832223Y-591944D01*
G01X694637Y-449397D02*
G01X614637Y-449397D01*
G01X583654Y-480380D02*
G01X583654Y-560377D01*
G01X694637Y-591358D02*
G01X614637Y-591358D01*
G01X583649Y-480380D02*
G02X614632Y-449397I30983J0D01*
G01X614632Y-591363D02*
G02X583649Y-560377I0J30983D01*
G01X832218Y-449979D02*
G02X863201Y-480964I0J-30983D01*
G01X863201Y-560962D02*
G02X832218Y-591944I-30983J0D01*
G01X850501Y-1115964D02*
G01X850501Y-1195967D01*
G01X739526Y-1084979D02*
G01X819523Y-1084979D01*
G01X739526Y-1226944D02*
G01X819523Y-1226944D01*
G01X681937Y-1084397D02*
G01X601937Y-1084397D01*
G01X570954Y-1115380D02*
G01X570954Y-1195377D01*
G01X681937Y-1226358D02*
G01X601937Y-1226358D01*
G01X570949Y-1115380D02*
G02X601932Y-1084397I30983J0D01*
G01X601932Y-1226363D02*
G02X570949Y-1195377I0J30983D01*
G01X819518Y-1084979D02*
G02X850501Y-1115964I0J-30983D01*
G01X850501Y-1195962D02*
G02X819518Y-1226944I-30983J0D01*
G01X850202Y-1306223D02*
G01X850202Y-1386225D01*
G01X739226Y-1275237D02*
G01X819224Y-1275237D01*
G01X739226Y-1417203D02*
G01X819224Y-1417203D01*
G01X681637Y-1274656D02*
G01X601637Y-1274656D01*
G01X570654Y-1305639D02*
G01X570654Y-1385636D01*
G01X681637Y-1416616D02*
G01X601637Y-1416616D01*
G01X570649Y-1305639D02*
G02X601632Y-1274656I30983J0D01*
G01X601632Y-1416621D02*
G02X570649Y-1385636I0J30983D01*
G01X819219Y-1275237D02*
G02X850202Y-1306223I0J-30983D01*
G01X850202Y-1386220D02*
G02X819219Y-1417203I-30983J0D01*
G01X1374592Y474022D02*
G01X1294595Y474022D01*
G01X1430637Y473977D02*
G01X1510635Y473977D01*
G01X1374592Y615991D02*
G01X1294595Y615991D01*
G01X1430637Y615942D02*
G01X1510635Y615942D01*
G01X1263620Y505005D02*
G01X1263620Y585010D01*
G01X1541612Y584957D02*
G01X1541612Y504955D01*
G01X1510629Y615942D02*
G02X1541612Y584957I0J-30983D01*
G01X1541612Y504960D02*
G02X1510629Y473977I-30983J0D01*
G01X1294600Y474022D02*
G02X1263620Y505005I3J30983D01*
G01X1263620Y585003D02*
G02X1294600Y615991I30983J5D01*
G01X1179253Y-100101D02*
G01X1179253Y-20104D01*
G01X1179208Y-156146D02*
G01X1179208Y-236144D01*
G01X1321222Y-100101D02*
G01X1321222Y-20104D01*
G01X1321173Y-156146D02*
G01X1321173Y-236144D01*
G01X1210236Y10871D02*
G01X1290241Y10871D01*
G01X1290188Y-267122D02*
G01X1210186Y-267122D01*
G01X1321173Y-236139D02*
G02X1290188Y-267122I-30983J0D01*
G01X1210191Y-267122D02*
G02X1179208Y-236139I0J30983D01*
G01X1179253Y-20109D02*
G02X1210236Y10871I30983J-3D01*
G01X1290234Y10871D02*
G02X1321222Y-20109I5J-30983D01*
G01X1026853Y-100101D02*
G01X1026853Y-20104D01*
G01X1026808Y-156146D02*
G01X1026808Y-236144D01*
G01X1168822Y-100101D02*
G01X1168822Y-20104D01*
G01X1168773Y-156146D02*
G01X1168773Y-236144D01*
G01X1057836Y10871D02*
G01X1137841Y10871D01*
G01X1137788Y-267122D02*
G01X1057786Y-267122D01*
G01X1168773Y-236139D02*
G02X1137788Y-267122I-30983J0D01*
G01X1057791Y-267122D02*
G02X1026808Y-236139I0J30983D01*
G01X1026853Y-20109D02*
G02X1057836Y10871I30983J-3D01*
G01X1137834Y10871D02*
G02X1168822Y-20109I5J-30983D01*
G54D11*
G01X1991098Y-137681D02*
G01X2010397Y-137681D01*
G01X1825249Y-138176D02*
G01X1844548Y-138176D01*
G01X1825079Y137622D02*
G01X1844378Y137622D01*
G54D12*
G01X1919346Y0D02*
G01X1868546Y-50800D01*
G01X1868546Y-50800D02*
G01X1970146Y-50800D01*
G01X1919346Y0D02*
G01X1970146Y-50800D01*
G01X1944746Y0D02*
G01X1893946Y0D01*
G01X1919346Y0D02*
G01X1970146Y50800D01*
G01X1970146Y50800D02*
G01X1868546Y50800D01*
G01X1919346Y0D02*
G01X1868546Y50800D01*
G01X1868546Y0D02*
G01X1970146Y0D01*
G01X1919346Y-76200D02*
G01X1919346Y76200D01*
G54D11*
G01X2010321Y-137622D02*
G01X2010321Y137622D01*
G01X1825079Y-137622D02*
G01X1825079Y137622D01*
G01X2010321Y137622D02*
G01X1991022Y137622D01*
G54D12*
G01X1820082Y-858302D02*
G01X1820082Y-859298D01*
G01X1820082Y-859298D02*
G01X1787077Y-892303D01*
G01X1752079Y-858302D02*
G01X1753077Y-858302D01*
G01X1753077Y-858302D02*
G01X1787077Y-892303D01*
G01X1752079Y-858302D02*
G01X1820082Y-858302D01*
G01X1712071Y-856298D02*
G01X1712071Y-741297D01*
G01X1862084Y-856298D02*
G01X1862084Y-741297D01*
G01X1712081Y-741297D02*
G01X1860075Y-741297D01*
G01X1862315Y-894299D02*
G01X1862315Y-999310D01*
G01X1822307Y-1029305D02*
G01X1832310Y-1029305D01*
G01X1832310Y-1029305D02*
G01X1862315Y-999310D01*
G01X1752312Y-1029305D02*
G01X1822307Y-1029305D01*
G01X1752312Y-1029305D02*
G01X1742297Y-1029305D01*
G01X1742297Y-1029305D02*
G01X1712302Y-999310D01*
G01X1712302Y-894299D02*
G01X1712302Y-999310D01*
G01X1787077Y-858302D02*
G01X1787077Y-892303D01*
G01X2023282Y-858302D02*
G01X2023282Y-859298D01*
G01X2023282Y-859298D02*
G01X1990277Y-892303D01*
G01X1955279Y-858302D02*
G01X1956277Y-858302D01*
G01X1956277Y-858302D02*
G01X1990277Y-892303D01*
G01X1955279Y-858302D02*
G01X2023282Y-858302D01*
G01X1915271Y-856298D02*
G01X1915271Y-741297D01*
G01X2065284Y-856298D02*
G01X2065284Y-741297D01*
G01X1915281Y-741297D02*
G01X2063275Y-741297D01*
G01X2065515Y-894299D02*
G01X2065515Y-999310D01*
G01X2025507Y-1029305D02*
G01X2035510Y-1029305D01*
G01X2035510Y-1029305D02*
G01X2065515Y-999310D01*
G01X1955512Y-1029305D02*
G01X2025507Y-1029305D01*
G01X1955512Y-1029305D02*
G01X1945497Y-1029305D01*
G01X1945497Y-1029305D02*
G01X1915502Y-999310D01*
G01X1915502Y-894299D02*
G01X1915502Y-999310D01*
G01X1990277Y-858302D02*
G01X1990277Y-892303D01*
G54D11*
G01X708421Y-127940D02*
G01X780225Y-127940D01*
G01X780225Y-127940D02*
G01X780225Y-227660D01*
G01X780225Y-227660D02*
G01X708421Y-227660D01*
G01X663179Y-127940D02*
G01X591376Y-127940D01*
G01X591376Y-127940D02*
G01X591376Y-227660D01*
G01X591376Y-227660D02*
G01X663179Y-227660D01*
G01X1715440Y-269479D02*
G01X1715440Y-197675D01*
G01X1715440Y-197675D02*
G01X1815160Y-197675D01*
G01X1815160Y-197675D02*
G01X1815160Y-269479D01*
G01X1715440Y-314721D02*
G01X1715440Y-386524D01*
G01X1715440Y-386524D02*
G01X1815160Y-386524D01*
G01X1815160Y-386524D02*
G01X1815160Y-314721D01*
G01X1927840Y-1299921D02*
G01X1927840Y-1395809D01*
G01X1927840Y-1395809D02*
G01X2059960Y-1395809D01*
G01X2059960Y-1395809D02*
G01X2059960Y-1299921D01*
G01X1927840Y-1214679D02*
G01X1927840Y-1118791D01*
G01X1927840Y-1118791D02*
G01X2059960Y-1118791D01*
G01X2059960Y-1118791D02*
G01X2059960Y-1214679D01*
G01X1907560Y-1214679D02*
G01X1907560Y-1118791D01*
G01X1907560Y-1118791D02*
G01X1775440Y-1118791D01*
G01X1775440Y-1118791D02*
G01X1775440Y-1214679D01*
G01X1907560Y-1299921D02*
G01X1907560Y-1395809D01*
G01X1907560Y-1395809D02*
G01X1775440Y-1395809D01*
G01X1775440Y-1395809D02*
G01X1775440Y-1299921D01*
G01X766521Y-396260D02*
G01X862409Y-396260D01*
G01X862409Y-396260D02*
G01X862409Y-264140D01*
G01X862409Y-264140D02*
G01X766521Y-264140D01*
G01X681279Y-396260D02*
G01X585391Y-396260D01*
G01X585391Y-396260D02*
G01X585391Y-264140D01*
G01X585391Y-264140D02*
G01X681279Y-264140D01*
G01X1720783Y-600819D02*
G01X1720783Y-696706D01*
G01X1720783Y-696706D02*
G01X1852904Y-696706D01*
G01X1852904Y-696706D02*
G01X1852904Y-600819D01*
G01X1720783Y-515576D02*
G01X1720783Y-419689D01*
G01X1720783Y-419689D02*
G01X1852904Y-419689D01*
G01X1852904Y-419689D02*
G01X1852904Y-515576D01*
G01X1918611Y-600819D02*
G01X1918611Y-696706D01*
G01X1918611Y-696706D02*
G01X2050732Y-696706D01*
G01X2050732Y-696706D02*
G01X2050732Y-600819D01*
G01X1918611Y-515576D02*
G01X1918611Y-419689D01*
G01X1918611Y-419689D02*
G01X2050732Y-419689D01*
G01X2050732Y-419689D02*
G01X2050732Y-515576D01*
G01X1165840Y-1299921D02*
G01X1165840Y-1395809D01*
G01X1165840Y-1395809D02*
G01X1297960Y-1395809D01*
G01X1297960Y-1395809D02*
G01X1297960Y-1299921D01*
G01X1165840Y-1214679D02*
G01X1165840Y-1118791D01*
G01X1165840Y-1118791D02*
G01X1297960Y-1118791D01*
G01X1297960Y-1118791D02*
G01X1297960Y-1214679D01*
G01X1623040Y-1299921D02*
G01X1623040Y-1395809D01*
G01X1623040Y-1395809D02*
G01X1755160Y-1395809D01*
G01X1755160Y-1395809D02*
G01X1755160Y-1299921D01*
G01X1623040Y-1214679D02*
G01X1623040Y-1118791D01*
G01X1623040Y-1118791D02*
G01X1755160Y-1118791D01*
G01X1755160Y-1118791D02*
G01X1755160Y-1214679D01*
G01X1013440Y-1299921D02*
G01X1013440Y-1395809D01*
G01X1013440Y-1395809D02*
G01X1145560Y-1395809D01*
G01X1145560Y-1395809D02*
G01X1145560Y-1299921D01*
G01X1013440Y-1214679D02*
G01X1013440Y-1118791D01*
G01X1013440Y-1118791D02*
G01X1145560Y-1118791D01*
G01X1145560Y-1118791D02*
G01X1145560Y-1214679D01*
G01X861040Y-1299921D02*
G01X861040Y-1395809D01*
G01X861040Y-1395809D02*
G01X993160Y-1395809D01*
G01X993160Y-1395809D02*
G01X993160Y-1299921D01*
G01X861040Y-1214679D02*
G01X861040Y-1118791D01*
G01X861040Y-1118791D02*
G01X993160Y-1118791D01*
G01X993160Y-1118791D02*
G01X993160Y-1214679D01*
G01X1318240Y-1299921D02*
G01X1318240Y-1395809D01*
G01X1318240Y-1395809D02*
G01X1450360Y-1395809D01*
G01X1450360Y-1395809D02*
G01X1450360Y-1299921D01*
G01X1318240Y-1214679D02*
G01X1318240Y-1118791D01*
G01X1318240Y-1118791D02*
G01X1450360Y-1118791D01*
G01X1450360Y-1118791D02*
G01X1450360Y-1214679D01*
G01X1470640Y-1299921D02*
G01X1470640Y-1395809D01*
G01X1470640Y-1395809D02*
G01X1602760Y-1395809D01*
G01X1602760Y-1395809D02*
G01X1602760Y-1299921D01*
G01X1470640Y-1214679D02*
G01X1470640Y-1118791D01*
G01X1470640Y-1118791D02*
G01X1602760Y-1118791D01*
G01X1602760Y-1118791D02*
G01X1602760Y-1214679D01*
G01X1058878Y135786D02*
G01X1058878Y39898D01*
G01X1058878Y39898D02*
G01X1190998Y39898D01*
G01X1190998Y39898D02*
G01X1190998Y135786D01*
G01X1058878Y221028D02*
G01X1058878Y316916D01*
G01X1058878Y316916D02*
G01X1190998Y316916D01*
G01X1190998Y316916D02*
G01X1190998Y221028D01*
G01X1057151Y438859D02*
G01X1057151Y342971D01*
G01X1057151Y342971D02*
G01X1189271Y342971D01*
G01X1189271Y342971D02*
G01X1189271Y438859D01*
G01X1057151Y524101D02*
G01X1057151Y619989D01*
G01X1057151Y619989D02*
G01X1189271Y619989D01*
G01X1189271Y619989D02*
G01X1189271Y524101D01*
G01X2009409Y504820D02*
G01X2009409Y633313D01*
G01X2009409Y633313D02*
G01X1825991Y633313D01*
G01X1825991Y633313D02*
G01X1825991Y504820D01*
G01X2009409Y409580D02*
G01X2009409Y281087D01*
G01X2009409Y281087D02*
G01X1825991Y281087D01*
G01X1825991Y281087D02*
G01X1825991Y409580D01*
G01X1000879Y-875640D02*
G01X1000879Y-521360D01*
G01X1000879Y-521360D02*
G01X1666121Y-521360D01*
G01X1666121Y-521360D02*
G01X1666121Y-875640D01*
G01X1666121Y-875640D02*
G01X1000879Y-875640D01*
G54D10*
G01X1241712Y316768D02*
G01X1241712Y162768D01*
G01X1563510Y320774D02*
G01X1563505Y160772D01*
G01X1359311Y336774D02*
G01X1447691Y336774D01*
G54D13*
G01X1426693Y-155735D02*
G01X1426693Y-98245D01*
G01X1646692Y-98245D02*
G01X1646692Y-155735D01*
G54D14*
G01X876587Y-1067041D02*
G01X927387Y-1067041D01*
G01X927387Y-1067041D02*
G01X927387Y-1016241D01*
G54D11*
G01X904768Y-1041387D02*
G01X571774Y-1041387D01*
G01X571774Y-1041387D02*
G01X571787Y-635241D01*
G01X571787Y-635241D02*
G01X736887Y-635241D01*
G01X736887Y-635241D02*
G01X901987Y-635241D01*
G01X901987Y-635241D02*
G01X904768Y-1041387D01*

G04 Circle Start*
G54D16*
G01X1025982Y-800405D02*
G03X1056005Y-800405I15011J0D01*
G03X1025982Y-800405I-15011J0D01*
G01X962558Y-985596D02*
G03X992581Y-985596I15011J0D01*
G03X962558Y-985596I-15011J0D01*
G54D10*
G01X1237298Y94574D02*
G03X1250099Y94574I6401J0D01*
G03X1237298Y94574I-6401J0D01*
G04 Circle End*

M02*

