G04 Layer: TopLayer*
G04 EasyEDA Pro v3.2.91, 2026-03-21 00:40:43*
G04 Gerber Generator version 0.3*
G04 Scale: 100 percent, Rotated: No, Reflected: No*
G04 Dimensions in millimeters*
G04 Leading zeros omitted, absolute positions, 4 integers and 5 decimals*
G04 Generated by one-click*
%FSLAX45Y45*%
%MOMM*%
%ADD10C,0.2032*%
%ADD11C,0.254*%
%ADD12R,0.8X0.9*%
%ADD13R,0.9X0.8*%
%ADD14R,1.2X1.4*%
%ADD15R,0.8012X0.8*%
%ADD16R,0.8X0.8*%
%ADD17R,0.56566X0.54*%
%ADD18R,0.54X0.56566*%
%ADD19R,0.86401X0.80648*%
%ADD20R,0.80648X0.86401*%
%ADD21R,1.37701X1.13254*%
%ADD22C,0.5*%
%ADD23O,0.36401X1.74201*%
%ADD24R,0.7X1.1*%
%ADD25R,2.0X0.85001*%
%ADD26O,1.00076X1.6002*%
%ADD27O,1.00076X2.10058*%
%ADD28O,1.6X3.79999*%
%ADD29C,0.61*%
%ADD30C,0.6096*%
%ADD31C,0.4064*%
%ADD32C,0.3048*%
%ADD33C,0.6604*%
%ADD34C,0.508*%
%ADD35C,0.7112*%
%ADD36C,0.3556*%
G75*


G04 Copper Start*
G36*
G01X671586Y-1748300D02*
G01X673052Y-1766668D01*
G01X677413Y-1784571D01*
G01X684557Y-1801556D01*
G01X694306Y-1817193D01*
G01X706411Y-1831086D01*
G01X556514Y-1831086D01*
G01X556514Y-1032639D01*
G01X561964Y-1041472D01*
G01X569719Y-1048372D01*
G01X579127Y-1052758D01*
G01X589397Y-1054263D01*
G01X709397Y-1054263D01*
G01X717899Y-1053239D01*
G01X725916Y-1050225D01*
G01X732988Y-1045394D01*
G01X732988Y-1076154D01*
G01X724614Y-1079359D01*
G01X717298Y-1084544D01*
G01X711500Y-1091384D01*
G01X703514Y-1082694D01*
G01X693138Y-1077072D01*
G01X681497Y-1075127D01*
G01X601497Y-1075127D01*
G01X590430Y-1076880D01*
G01X580446Y-1081967D01*
G01X572523Y-1089890D01*
G01X567436Y-1099874D01*
G01X565683Y-1110941D01*
G01X565683Y-1200941D01*
G01X567436Y-1212008D01*
G01X572523Y-1221992D01*
G01X580446Y-1229915D01*
G01X590430Y-1235002D01*
G01X601497Y-1236755D01*
G01X681497Y-1236755D01*
G01X693138Y-1234811D01*
G01X703514Y-1229188D01*
G01X711500Y-1220499D01*
G01X719485Y-1229188D01*
G01X729862Y-1234811D01*
G01X741502Y-1236755D01*
G01X802386Y-1236755D01*
G01X802386Y-1256407D01*
G01X793407Y-1265386D01*
G01X741202Y-1265386D01*
G01X729562Y-1267331D01*
G01X719186Y-1272953D01*
G01X711200Y-1281643D01*
G01X703214Y-1272953D01*
G01X692838Y-1267331D01*
G01X681198Y-1265386D01*
G01X601198Y-1265386D01*
G01X590131Y-1267139D01*
G01X580147Y-1272226D01*
G01X572224Y-1280149D01*
G01X567137Y-1290133D01*
G01X565384Y-1301200D01*
G01X565384Y-1391200D01*
G01X567137Y-1402267D01*
G01X572224Y-1412251D01*
G01X580147Y-1420174D01*
G01X590131Y-1425261D01*
G01X601198Y-1427014D01*
G01X681198Y-1427014D01*
G01X692838Y-1425069D01*
G01X703214Y-1419447D01*
G01X711200Y-1410757D01*
G01X717076Y-1417668D01*
G01X724500Y-1422880D01*
G01X732995Y-1426061D01*
G01X715543Y-1437474D01*
G01X700421Y-1451832D01*
G01X688118Y-1468668D01*
G01X679034Y-1487438D01*
G01X673463Y-1507532D01*
G01X671586Y-1528300D01*
G01X671586Y-1748300D01*
G37*
G36*
G01X2059686Y649986D02*
G01X2059686Y-426090D01*
G01X2054063Y-418111D01*
G01X2046495Y-411946D01*
G01X2037542Y-408054D01*
G01X2027872Y-406723D01*
G01X1941471Y-406723D01*
G01X1929696Y-408714D01*
G01X1919230Y-414466D01*
G01X1911237Y-423339D01*
G01X1906606Y-434347D01*
G01X1864909Y-434347D01*
G01X1860278Y-423339D01*
G01X1852285Y-414466D01*
G01X1841819Y-408714D01*
G01X1830044Y-406723D01*
G01X1743643Y-406723D01*
G01X1732576Y-408476D01*
G01X1722592Y-413563D01*
G01X1714669Y-421486D01*
G01X1709582Y-431470D01*
G01X1707829Y-442537D01*
G01X1707829Y-523185D01*
G01X1709144Y-532799D01*
G01X1712991Y-541707D01*
G01X1719088Y-549255D01*
G01X1726987Y-554890D01*
G01X1736110Y-558197D01*
G01X1724951Y-562661D01*
G01X1715897Y-570565D01*
G01X1711889Y-557930D01*
G01X1705447Y-546345D01*
G01X1696830Y-536272D01*
G01X1686382Y-528114D01*
G01X1674520Y-522197D01*
G01X1674520Y-504051D01*
G01X1678628Y-492492D01*
G01X1680021Y-480304D01*
G01X1680021Y-342504D01*
G01X1678391Y-329336D01*
G01X1673601Y-316963D01*
G01X1665938Y-306130D01*
G01X1655866Y-297493D01*
G01X1643992Y-291572D01*
G01X1631033Y-288724D01*
G01X1617771Y-289121D01*
G01X1605005Y-292739D01*
G01X1593507Y-299360D01*
G01X1581412Y-292491D01*
G01X1567963Y-288939D01*
G01X1554053Y-288939D01*
G01X1540604Y-292491D01*
G01X1528509Y-299360D01*
G01X1518074Y-293202D01*
G01X1506529Y-289524D01*
G01X1494454Y-288512D01*
G01X1482458Y-290217D01*
G01X1471143Y-294553D01*
G01X1467111Y-290010D01*
G01X1465410Y-288309D01*
G01X1636700Y-288309D01*
G01X1647767Y-286556D01*
G01X1657751Y-281469D01*
G01X1665674Y-273546D01*
G01X1670761Y-263562D01*
G01X1672275Y-254000D01*
G01X1698986Y-254000D01*
G01X1699867Y-264772D01*
G01X1702486Y-275259D01*
G01X1702486Y-277101D01*
G01X1703318Y-284779D01*
G01X1705778Y-292100D01*
G01X1703318Y-299421D01*
G01X1702486Y-307099D01*
G01X1702486Y-307099D01*
G01X1702486Y-363664D01*
G01X1704239Y-374732D01*
G01X1709326Y-384715D01*
G01X1717249Y-392639D01*
G01X1727233Y-397726D01*
G01X1738300Y-399478D01*
G01X1792300Y-399478D01*
G01X1803367Y-397726D01*
G01X1813351Y-392639D01*
G01X1821274Y-384715D01*
G01X1826361Y-374732D01*
G01X1828114Y-363664D01*
G01X1828114Y-307099D01*
G01X1827282Y-299421D01*
G01X1824822Y-292100D01*
G01X1827282Y-284779D01*
G01X1828114Y-277101D01*
G01X1828114Y-275259D01*
G01X1830391Y-266678D01*
G01X1838129Y-273500D01*
G01X1847490Y-277833D01*
G01X1857698Y-279319D01*
G01X1977697Y-279319D01*
G01X1988764Y-277566D01*
G01X1998748Y-272479D01*
G01X2006671Y-264556D01*
G01X2011758Y-254572D01*
G01X2013511Y-243505D01*
G01X2013511Y-103505D01*
G01X2011758Y-92438D01*
G01X2006671Y-82454D01*
G01X1998748Y-74531D01*
G01X1988764Y-69444D01*
G01X1977697Y-67691D01*
G01X1857698Y-67691D01*
G01X1846630Y-69444D01*
G01X1836647Y-74531D01*
G01X1828723Y-82454D01*
G01X1823636Y-92438D01*
G01X1821884Y-103505D01*
G01X1821884Y-200350D01*
G01X1813918Y-191982D01*
G01X1803702Y-186585D01*
G01X1792300Y-184721D01*
G01X1738300Y-184721D01*
G01X1727233Y-186474D01*
G01X1717249Y-191561D01*
G01X1709326Y-199485D01*
G01X1704239Y-209468D01*
G01X1702486Y-220535D01*
G01X1702486Y-232741D01*
G01X1699867Y-243228D01*
G01X1698986Y-254000D01*
G01X1672275Y-254000D01*
G01X1672514Y-252495D01*
G01X1672514Y-167494D01*
G01X1670761Y-156427D01*
G01X1665674Y-146443D01*
G01X1657751Y-138520D01*
G01X1647767Y-133433D01*
G01X1636700Y-131680D01*
G01X1436700Y-131680D01*
G01X1433441Y-131829D01*
G01X1319527Y-131829D01*
G01X1314768Y-128120D01*
G01X1323458Y-120135D01*
G01X1329080Y-109758D01*
G01X1331025Y-98118D01*
G01X1331025Y-18118D01*
G01X1329272Y-7051D01*
G01X1324185Y2933D01*
G01X1316262Y10856D01*
G01X1306278Y15943D01*
G01X1295211Y17696D01*
G01X1205211Y17696D01*
G01X1195852Y16452D01*
G01X1187143Y12805D01*
G01X1179690Y7009D01*
G01X1174011Y-534D01*
G01X1168332Y7009D01*
G01X1160879Y12805D01*
G01X1152170Y16452D01*
G01X1142811Y17696D01*
G01X1057795Y17696D01*
G01X1064341Y31442D01*
G01X1072752Y28078D01*
G01X1081738Y26933D01*
G01X1168138Y26933D01*
G01X1179206Y28686D01*
G01X1189189Y33773D01*
G01X1197113Y41696D01*
G01X1202200Y51680D01*
G01X1203952Y62747D01*
G01X1203952Y143394D01*
G01X1202638Y153008D01*
G01X1198791Y161916D01*
G01X1192694Y169465D01*
G01X1184794Y175100D01*
G01X1175672Y178407D01*
G01X1184794Y181714D01*
G01X1192694Y187349D01*
G01X1198791Y194898D01*
G01X1202638Y203806D01*
G01X1203952Y213420D01*
G01X1203952Y294067D01*
G01X1202511Y304124D01*
G01X1198304Y313372D01*
G01X1191669Y321066D01*
G01X1236892Y321066D01*
G01X1236892Y314580D01*
G01X1238357Y304442D01*
G01X1242633Y295133D01*
G01X1249368Y287415D01*
G01X1258013Y281919D01*
G01X1249207Y269389D01*
G01X1243511Y255174D01*
G01X1241227Y240030D01*
G01X1242478Y224767D01*
G01X1247197Y210197D01*
G01X1255133Y197099D01*
G01X1247508Y191429D01*
G01X1241643Y183953D01*
G01X1237950Y175198D01*
G01X1236689Y165779D01*
G01X1236689Y55780D01*
G01X1238442Y44713D01*
G01X1243529Y34729D01*
G01X1251452Y26806D01*
G01X1261436Y21719D01*
G01X1272503Y19966D01*
G01X1342503Y19966D01*
G01X1348853Y20533D01*
G01X1355001Y22217D01*
G01X1361150Y20533D01*
G01X1367499Y19966D01*
G01X1408036Y19966D01*
G01X1402721Y9810D01*
G01X1400886Y-1505D01*
G01X1400886Y-86506D01*
G01X1402639Y-97573D01*
G01X1407726Y-107557D01*
G01X1415649Y-115480D01*
G01X1425633Y-120567D01*
G01X1436700Y-122320D01*
G01X1636700Y-122320D01*
G01X1646612Y-120921D01*
G01X1655750Y-116833D01*
G01X1663400Y-110376D01*
G01X1676107Y-122018D01*
G01X1690884Y-130887D01*
G01X1707135Y-136626D01*
G01X1724204Y-139003D01*
G01X1741405Y-137924D01*
G01X1758043Y-133431D01*
G01X1773448Y-125705D01*
G01X1787001Y-115058D01*
G01X1798153Y-101918D01*
G01X1806456Y-86816D01*
G01X1811576Y-70360D01*
G01X1813306Y-53213D01*
G01X1813306Y56769D01*
G01X1811505Y74262D01*
G01X1806178Y91020D01*
G01X1797547Y106342D01*
G01X1785976Y119584D01*
G01X1771950Y130190D01*
G01X1756056Y137716D01*
G01X1738963Y141846D01*
G01X1721387Y142406D01*
G01X1704065Y139374D01*
G01X1687725Y132875D01*
G01X1673051Y123184D01*
G01X1660660Y110706D01*
G01X1651072Y95965D01*
G01X1640798Y107494D01*
G01X1628271Y116524D01*
G01X1614085Y122626D01*
G01X1598915Y125511D01*
G01X1583479Y125040D01*
G01X1568512Y121238D01*
G01X1568512Y165779D01*
G01X1566759Y176847D01*
G01X1561672Y186830D01*
G01X1553749Y194754D01*
G01X1543765Y199841D01*
G01X1532698Y201593D01*
G01X1462698Y201593D01*
G01X1456295Y201016D01*
G01X1450099Y199304D01*
G01X1443902Y201016D01*
G01X1437499Y201593D01*
G01X1367499Y201593D01*
G01X1362878Y201294D01*
G01X1369459Y214137D01*
G01X1373107Y228100D01*
G01X1373647Y242521D01*
G01X1371056Y256717D01*
G01X1365454Y270017D01*
G01X1357108Y281790D01*
G01X1365863Y287259D01*
G01X1372693Y294999D01*
G01X1377033Y304365D01*
G01X1378520Y314580D01*
G01X1378520Y424580D01*
G01X1376767Y435647D01*
G01X1371680Y445631D01*
G01X1363757Y453554D01*
G01X1353773Y458641D01*
G01X1342706Y460394D01*
G01X1272706Y460394D01*
G01X1261639Y458641D01*
G01X1251655Y453554D01*
G01X1243732Y445631D01*
G01X1238645Y435647D01*
G01X1236892Y424580D01*
G01X1236892Y418094D01*
G01X1202225Y418094D01*
G01X1202225Y446467D01*
G01X1200911Y456081D01*
G01X1197064Y464989D01*
G01X1190967Y472538D01*
G01X1183067Y478172D01*
G01X1173945Y481480D01*
G01X1183067Y484787D01*
G01X1190967Y490422D01*
G01X1197064Y497971D01*
G01X1197932Y499980D01*
G01X1256795Y499980D01*
G01X1258547Y488913D01*
G01X1263634Y478929D01*
G01X1271558Y471006D01*
G01X1281541Y465919D01*
G01X1292609Y464166D01*
G01X1372608Y464166D01*
G01X1384249Y466110D01*
G01X1394625Y471733D01*
G01X1402611Y480423D01*
G01X1410596Y471733D01*
G01X1420973Y466110D01*
G01X1432613Y464166D01*
G01X1441564Y464166D01*
G01X1441564Y453494D01*
G01X1433684Y445575D01*
G01X1428627Y435615D01*
G01X1426884Y424580D01*
G01X1426884Y314580D01*
G01X1428637Y303513D01*
G01X1433724Y293529D01*
G01X1441647Y285606D01*
G01X1451631Y280519D01*
G01X1462698Y278766D01*
G01X1532698Y278766D01*
G01X1543765Y280519D01*
G01X1553749Y285606D01*
G01X1561672Y293529D01*
G01X1566759Y303513D01*
G01X1568512Y314580D01*
G01X1568512Y424580D01*
G01X1566770Y435615D01*
G01X1561713Y445575D01*
G01X1553832Y453494D01*
G01X1553832Y478686D01*
G01X1586380Y478686D01*
G01X1599916Y480083D01*
G01X1612883Y484214D01*
G01X1624732Y490906D01*
G01X1652064Y490906D01*
G01X1646306Y477861D01*
G01X1642786Y464044D01*
G01X1641602Y449834D01*
G01X1641602Y389890D01*
G01X1643385Y372485D01*
G01X1648659Y355803D01*
G01X1657206Y340537D01*
G01X1668670Y327320D01*
G01X1682575Y316702D01*
G01X1698345Y309124D01*
G01X1715323Y304899D01*
G01X1732805Y304205D01*
G01X1750065Y307069D01*
G01X1766386Y313373D01*
G01X1781090Y322854D01*
G01X1793566Y335120D01*
G01X1803297Y349660D01*
G01X1809878Y365872D01*
G01X1813035Y383080D01*
G01X1813035Y300573D01*
G01X1814362Y290917D01*
G01X1818243Y281976D01*
G01X1824391Y274412D01*
G01X1832351Y268786D01*
G01X1826671Y261373D01*
G01X1823101Y252743D01*
G01X1821884Y243484D01*
G01X1821884Y103485D01*
G01X1823636Y92418D01*
G01X1828723Y82434D01*
G01X1836647Y74511D01*
G01X1846630Y69424D01*
G01X1857698Y67671D01*
G01X1977697Y67671D01*
G01X1988764Y69424D01*
G01X1998748Y74511D01*
G01X2006671Y82434D01*
G01X2011758Y92418D01*
G01X2013511Y103485D01*
G01X2013511Y243484D01*
G01X2012294Y252743D01*
G01X2008725Y261372D01*
G01X2003046Y268784D01*
G01X2011007Y274410D01*
G01X2017156Y281974D01*
G01X2021038Y290916D01*
G01X2022365Y300573D01*
G01X2022365Y413827D01*
G01X2020612Y424894D01*
G01X2015525Y434878D01*
G01X2007601Y442801D01*
G01X1997618Y447888D01*
G01X1986551Y449641D01*
G01X1848849Y449641D01*
G01X1838623Y448150D01*
G01X1829249Y443801D01*
G01X1821506Y436957D01*
G01X1816040Y428186D01*
G01X1813306Y418220D01*
G01X1813306Y449834D01*
G01X1812122Y464044D01*
G01X1808602Y477861D01*
G01X1802844Y490906D01*
G01X1814365Y490906D01*
G01X1819244Y480419D01*
G01X1827211Y472035D01*
G01X1837435Y466627D01*
G01X1848849Y464759D01*
G01X1986551Y464759D01*
G01X1997618Y466512D01*
G01X2007601Y471599D01*
G01X2015525Y479522D01*
G01X2020612Y489506D01*
G01X2022365Y500573D01*
G01X2022365Y613827D01*
G01X2020612Y624894D01*
G01X2015525Y634878D01*
G01X2007601Y642801D01*
G01X1997618Y647888D01*
G01X1986551Y649641D01*
G01X1848849Y649641D01*
G01X1837435Y647773D01*
G01X1827211Y642365D01*
G01X1819244Y633980D01*
G01X1814365Y623494D01*
G01X1598600Y623494D01*
G01X1585063Y622097D01*
G01X1572097Y617966D01*
G01X1560248Y611274D01*
G01X1541409Y611274D01*
G01X1541409Y611274D01*
G01X1533501Y619072D01*
G01X1523585Y624072D01*
G01X1512613Y625794D01*
G01X1432613Y625794D01*
G01X1420973Y623849D01*
G01X1410596Y618227D01*
G01X1402611Y609537D01*
G01X1394625Y618227D01*
G01X1384249Y623849D01*
G01X1372608Y625794D01*
G01X1292609Y625794D01*
G01X1281541Y624041D01*
G01X1271558Y618954D01*
G01X1263634Y611031D01*
G01X1258547Y601047D01*
G01X1256795Y589980D01*
G01X1256795Y499980D01*
G01X1197932Y499980D01*
G01X1200911Y506879D01*
G01X1202225Y516492D01*
G01X1202225Y597140D01*
G01X1200472Y608207D01*
G01X1195385Y618191D01*
G01X1187462Y626114D01*
G01X1177478Y631201D01*
G01X1166411Y632954D01*
G01X1080011Y632954D01*
G01X1068943Y631201D01*
G01X1058960Y626114D01*
G01X1051036Y618191D01*
G01X1045949Y608207D01*
G01X1044197Y597140D01*
G01X1044197Y516492D01*
G01X1045511Y506879D01*
G01X1049358Y497971D01*
G01X1055455Y490422D01*
G01X1063355Y484787D01*
G01X1072477Y481480D01*
G01X1063355Y478172D01*
G01X1055455Y472538D01*
G01X1049358Y464989D01*
G01X1045511Y456081D01*
G01X1044197Y446467D01*
G01X1044197Y365820D01*
G01X1045635Y355772D01*
G01X1049835Y346531D01*
G01X1056458Y338840D01*
G01X1064974Y333315D01*
G01X1074697Y330402D01*
G01X1074697Y329182D01*
G01X1065439Y325958D01*
G01X1057403Y320344D01*
G01X1051190Y312761D01*
G01X1047265Y303778D01*
G01X1045924Y294067D01*
G01X1045924Y213420D01*
G01X1047238Y203806D01*
G01X1051085Y194898D01*
G01X1057182Y187349D01*
G01X1065082Y181714D01*
G01X1074204Y178407D01*
G01X1066233Y175678D01*
G01X1059121Y171163D01*
G01X1050108Y176612D01*
G01X1040133Y179987D01*
G01X1029664Y181130D01*
G01X909719Y181130D01*
G01X902751Y182695D01*
G01X895629Y183221D01*
G01X831063Y183221D01*
G01X818507Y181568D01*
G01X806806Y176721D01*
G01X796758Y169012D01*
G01X751103Y123357D01*
G01X743394Y113309D01*
G01X738547Y101608D01*
G01X736894Y89052D01*
G01X736894Y-85496D01*
G01X738040Y-95978D01*
G01X741424Y-105966D01*
G01X746886Y-114986D01*
G01X745159Y-114986D01*
G01X731099Y-111878D01*
G01X716701Y-111878D01*
G01X702641Y-114986D01*
G01X700799Y-114986D01*
G01X693121Y-115818D01*
G01X685800Y-118278D01*
G01X678479Y-115818D01*
G01X670801Y-114986D01*
G01X614236Y-114986D01*
G01X603168Y-116739D01*
G01X593185Y-121826D01*
G01X585261Y-129749D01*
G01X580174Y-139733D01*
G01X578422Y-150800D01*
G01X578422Y-204800D01*
G01X580174Y-215867D01*
G01X585261Y-225851D01*
G01X593185Y-233774D01*
G01X603168Y-238861D01*
G01X614236Y-240614D01*
G01X670801Y-240614D01*
G01X678479Y-239782D01*
G01X685800Y-237322D01*
G01X693121Y-239782D01*
G01X700799Y-240614D01*
G01X702641Y-240614D01*
G01X716701Y-243722D01*
G01X731099Y-243722D01*
G01X745159Y-240614D01*
G01X757365Y-240614D01*
G01X768432Y-238861D01*
G01X778415Y-233774D01*
G01X786339Y-225851D01*
G01X791426Y-215867D01*
G01X793179Y-204800D01*
G01X793179Y-161876D01*
G01X848182Y-216879D01*
G01X858229Y-224589D01*
G01X869930Y-229435D01*
G01X882486Y-231088D01*
G01X1016997Y-231088D01*
G01X1016997Y-238122D01*
G01X1018750Y-249190D01*
G01X1023837Y-259173D01*
G01X1031760Y-267097D01*
G01X1041744Y-272184D01*
G01X1052811Y-273936D01*
G01X1142811Y-273936D01*
G01X1151629Y-272834D01*
G01X1159904Y-269594D01*
G01X1167127Y-264417D01*
G01X1180895Y-264417D01*
G01X1188118Y-269594D01*
G01X1196393Y-272834D01*
G01X1205211Y-273936D01*
G01X1206897Y-273936D01*
G01X1214110Y-283011D01*
G01X1221553Y-290454D01*
G01X1212103Y-294058D01*
G01X1203490Y-299360D01*
G01X1191395Y-292491D01*
G01X1177946Y-288939D01*
G01X1164036Y-288939D01*
G01X1150587Y-292491D01*
G01X1138492Y-299360D01*
G01X1126396Y-292491D01*
G01X1112947Y-288939D01*
G01X1099037Y-288939D01*
G01X1085588Y-292491D01*
G01X1073493Y-299360D01*
G01X1061995Y-292739D01*
G01X1049229Y-289121D01*
G01X1035967Y-288724D01*
G01X1023008Y-291572D01*
G01X1011134Y-297493D01*
G01X1001062Y-306130D01*
G01X993399Y-316963D01*
G01X988609Y-329336D01*
G01X986979Y-342504D01*
G01X986979Y-378355D01*
G01X875030Y-378355D01*
G01X875374Y-373400D01*
G01X875374Y-287000D01*
G01X873621Y-275933D01*
G01X868534Y-265949D01*
G01X860611Y-258026D01*
G01X850627Y-252939D01*
G01X839560Y-251186D01*
G01X758913Y-251186D01*
G01X749299Y-252500D01*
G01X740391Y-256347D01*
G01X732842Y-262444D01*
G01X727207Y-270344D01*
G01X723900Y-279466D01*
G01X720593Y-270344D01*
G01X714958Y-262444D01*
G01X707409Y-256347D01*
G01X698501Y-252500D01*
G01X688887Y-251186D01*
G01X608240Y-251186D01*
G01X597173Y-252939D01*
G01X587189Y-258026D01*
G01X579266Y-265949D01*
G01X574179Y-275933D01*
G01X572426Y-287000D01*
G01X572426Y-373400D01*
G01X573750Y-383049D01*
G01X577625Y-391984D01*
G01X583763Y-399545D01*
G01X591712Y-405172D01*
G01X600883Y-408451D01*
G01X600883Y-442694D01*
G01X591723Y-448057D01*
G01X584537Y-455869D01*
G01X579956Y-465444D01*
G01X578383Y-475941D01*
G01X578383Y-565941D01*
G01X579956Y-576438D01*
G01X584537Y-586013D01*
G01X591723Y-593825D01*
G01X600883Y-599188D01*
G01X600883Y-622620D01*
G01X589397Y-622620D01*
G01X579127Y-624124D01*
G01X569719Y-628510D01*
G01X561964Y-635410D01*
G01X556514Y-644244D01*
G01X556514Y389890D01*
G01X777494Y389890D01*
G01X779370Y372040D01*
G01X784916Y354971D01*
G01X793890Y339427D01*
G01X805900Y326090D01*
G01X820420Y315540D01*
G01X836816Y308240D01*
G01X854372Y304508D01*
G01X872320Y304508D01*
G01X889876Y308240D01*
G01X906272Y315540D01*
G01X920792Y326090D01*
G01X932802Y339427D01*
G01X941776Y354971D01*
G01X947322Y372040D01*
G01X949198Y389890D01*
G01X949198Y449834D01*
G01X947322Y467684D01*
G01X941776Y484753D01*
G01X932802Y500297D01*
G01X920792Y513634D01*
G01X906272Y524184D01*
G01X889876Y531484D01*
G01X872320Y535216D01*
G01X854372Y535216D01*
G01X836816Y531484D01*
G01X820420Y524184D01*
G01X805900Y513634D01*
G01X793890Y500297D01*
G01X784916Y484753D01*
G01X779370Y467684D01*
G01X777494Y449834D01*
G01X777494Y449834D01*
G01X777494Y389890D01*
G01X556514Y389890D01*
G01X556514Y649986D01*
G01X2059686Y649986D01*
G37*
G36*
G01X589397Y-842635D02*
G01X579127Y-844139D01*
G01X569719Y-848525D01*
G01X561964Y-855425D01*
G01X556514Y-864259D01*
G01X556514Y-812624D01*
G01X561964Y-821458D01*
G01X569719Y-828357D01*
G01X579127Y-832744D01*
G01X589397Y-834248D01*
G01X709397Y-834248D01*
G01X719702Y-832733D01*
G01X729136Y-828317D01*
G01X736900Y-821373D01*
G01X744664Y-828317D01*
G01X754097Y-832733D01*
G01X764403Y-834248D01*
G01X884403Y-834248D01*
G01X895470Y-832495D01*
G01X905454Y-827408D01*
G01X913377Y-819485D01*
G01X918464Y-809501D01*
G01X920217Y-798434D01*
G01X920217Y-658434D01*
G01X918464Y-647367D01*
G01X913377Y-637383D01*
G01X905454Y-629460D01*
G01X895470Y-624373D01*
G01X884403Y-622620D01*
G01X764403Y-622620D01*
G01X754097Y-624135D01*
G01X744664Y-628551D01*
G01X736900Y-635495D01*
G01X729136Y-628551D01*
G01X719702Y-624135D01*
G01X709397Y-622620D01*
G01X697911Y-622620D01*
G01X697911Y-601562D01*
G01X708153Y-598924D01*
G01X717179Y-593409D01*
G01X724200Y-585499D01*
G01X732185Y-594188D01*
G01X742562Y-599811D01*
G01X754202Y-601755D01*
G01X834202Y-601755D01*
G01X845269Y-600002D01*
G01X855253Y-594915D01*
G01X863176Y-586992D01*
G01X868263Y-577008D01*
G01X870016Y-565941D01*
G01X870016Y-475941D01*
G01X870012Y-475383D01*
G01X986979Y-475383D01*
G01X986979Y-480304D01*
G01X988918Y-494644D01*
G01X994593Y-507954D01*
G01X1003599Y-519281D01*
G01X1015289Y-527810D01*
G01X1028823Y-532929D01*
G01X1043231Y-534272D01*
G01X1057478Y-531741D01*
G01X1057478Y-550313D01*
G01X943595Y-664195D01*
G01X935886Y-674243D01*
G01X931039Y-685944D01*
G01X929386Y-698500D01*
G01X929386Y-856205D01*
G01X918401Y-867190D01*
G01X913288Y-857276D01*
G01X905372Y-849416D01*
G01X895422Y-844372D01*
G01X884403Y-842635D01*
G01X764403Y-842635D01*
G01X754097Y-844150D01*
G01X744664Y-848566D01*
G01X736900Y-855509D01*
G01X729136Y-848566D01*
G01X719702Y-844150D01*
G01X709397Y-842635D01*
G01X589397Y-842635D01*
G37*
G36*
G01X981139Y-14098D02*
G01X993201Y-15874D01*
G01X1005389Y-15557D01*
G01X1017342Y-13155D01*
G01X1016997Y-18118D01*
G01X1016997Y-98118D01*
G01X1018941Y-109758D01*
G01X1024564Y-120135D01*
G01X1033254Y-128120D01*
G01X1026285Y-134060D01*
G01X902581Y-134060D01*
G01X899570Y-131049D01*
G01X913562Y-122847D01*
G01X925763Y-112160D01*
G01X935735Y-99369D01*
G01X943124Y-84930D01*
G01X947666Y-69360D01*
G01X949198Y-53213D01*
G01X949198Y2970D01*
G01X958807Y-4534D01*
G01X969560Y-10280D01*
G01X981139Y-14098D01*
G37*
G36*
G01X1154506Y-531741D02*
G01X1168079Y-534240D01*
G01X1181842Y-533217D01*
G01X1174176Y-547486D01*
G01X1170198Y-563188D01*
G01X1170146Y-579386D01*
G01X1174022Y-595113D01*
G01X1181595Y-609431D01*
G01X1192413Y-621487D01*
G01X1205831Y-630560D01*
G01X1146795Y-689595D01*
G01X1139086Y-699643D01*
G01X1134239Y-711344D01*
G01X1132586Y-723900D01*
G01X1132586Y-812800D01*
G01X1134239Y-825356D01*
G01X1139086Y-837057D01*
G01X1146795Y-847105D01*
G01X1162971Y-863280D01*
G01X1150090Y-866889D01*
G01X1138492Y-873553D01*
G01X1126396Y-866684D01*
G01X1112947Y-863131D01*
G01X1099037Y-863131D01*
G01X1085588Y-866684D01*
G01X1073493Y-873553D01*
G01X1062815Y-867286D01*
G01X1050990Y-863615D01*
G01X1038640Y-862733D01*
G01X1026414Y-864687D01*
G01X1026414Y-718595D01*
G01X1140297Y-604712D01*
G01X1148007Y-594665D01*
G01X1152853Y-582964D01*
G01X1154506Y-570408D01*
G01X1154506Y-531741D01*
G37*
G36*
G01X2030580Y-876219D02*
G01X2041718Y-874443D01*
G01X2051752Y-869291D01*
G01X2059686Y-861273D01*
G01X2059686Y-898473D01*
G01X2051817Y-890950D01*
G01X2042051Y-886139D01*
G01X2031291Y-884485D01*
G01X1951291Y-884485D01*
G01X1940224Y-886237D01*
G01X1930240Y-891324D01*
G01X1922317Y-899248D01*
G01X1917230Y-909231D01*
G01X1915477Y-920299D01*
G01X1915477Y-1000298D01*
G01X1917065Y-1010847D01*
G01X1862316Y-1010847D01*
G01X1863905Y-1000298D01*
G01X1863905Y-920299D01*
G01X1862152Y-909231D01*
G01X1857065Y-899248D01*
G01X1849142Y-891324D01*
G01X1839158Y-886237D01*
G01X1828091Y-884485D01*
G01X1748091Y-884485D01*
G01X1737614Y-886051D01*
G01X1737614Y-874862D01*
G01X1747380Y-876219D01*
G01X1827380Y-876219D01*
G01X1838447Y-874466D01*
G01X1848430Y-869379D01*
G01X1856354Y-861456D01*
G01X1861441Y-851472D01*
G01X1863194Y-840405D01*
G01X1863194Y-760406D01*
G01X1861230Y-748709D01*
G01X1855554Y-738295D01*
G01X1846788Y-730306D01*
G01X1835894Y-725618D01*
G01X1835894Y-709191D01*
G01X1845474Y-706177D01*
G01X1853841Y-700622D01*
G01X1860336Y-692963D01*
G01X1864450Y-683801D01*
G01X1865858Y-673858D01*
G01X1865858Y-593210D01*
G01X1864543Y-583596D01*
G01X1860697Y-574688D01*
G01X1854600Y-567140D01*
G01X1846700Y-561505D01*
G01X1837578Y-558197D01*
G01X1847024Y-554717D01*
G01X1855129Y-548746D01*
G01X1861252Y-540755D01*
G01X1864909Y-531375D01*
G01X1906606Y-531375D01*
G01X1910263Y-540755D01*
G01X1916386Y-548746D01*
G01X1924491Y-554717D01*
G01X1933937Y-558197D01*
G01X1924815Y-561505D01*
G01X1916916Y-567140D01*
G01X1910819Y-574688D01*
G01X1906972Y-583596D01*
G01X1905657Y-593210D01*
G01X1905657Y-673858D01*
G01X1907410Y-684925D01*
G01X1912497Y-694908D01*
G01X1920420Y-702832D01*
G01X1930404Y-707919D01*
G01X1941471Y-709672D01*
G01X1942066Y-709672D01*
G01X1942066Y-725618D01*
G01X1931171Y-730306D01*
G01X1922406Y-738295D01*
G01X1916729Y-748709D01*
G01X1914766Y-760406D01*
G01X1914766Y-840405D01*
G01X1916519Y-851472D01*
G01X1921606Y-861456D01*
G01X1929529Y-869379D01*
G01X1939513Y-874466D01*
G01X1950580Y-876219D01*
G01X2030580Y-876219D01*
G37*
G54D10*
G01X671586Y-1748300D02*
G03X706411Y-1831086I115814J0D01*
G01X556514Y-1831086D01*
G01X556514Y-1032639D01*
G03X589397Y-1054263I32883J14190D01*
G01X709397Y-1054263D01*
G03X732988Y-1045394I0J35814D01*
G01X732988Y-1076154D01*
G03X711500Y-1091384I8514J-34787D01*
G03X681497Y-1075127I-30002J-19557D01*
G01X601497Y-1075127D01*
G03X565683Y-1110941I0J-35814D01*
G01X565683Y-1200941D01*
G03X601497Y-1236755I35814J0D01*
G01X681497Y-1236755D01*
G03X711500Y-1220499I0J35814D01*
G03X741502Y-1236755I30002J19557D01*
G01X802386Y-1236755D01*
G01X802386Y-1256407D01*
G01X793407Y-1265386D01*
G01X741202Y-1265386D01*
G03X711200Y-1281643I0J-35814D01*
G03X681198Y-1265386I-30002J-19557D01*
G01X601198Y-1265386D01*
G03X565384Y-1301200I0J-35814D01*
G01X565384Y-1391200D01*
G03X601198Y-1427014I35814J0D01*
G01X681198Y-1427014D01*
G03X711200Y-1410757I0J35814D01*
G03X732995Y-1426061I30002J19557D01*
G03X671586Y-1528300I54405J-102240D01*
G01X671586Y-1748300D01*
G01X2059686Y649986D02*
G01X2059686Y-426090D01*
G03X2027872Y-406723I-31814J-16447D01*
G01X1941471Y-406723D01*
G03X1906606Y-434347I0J-35814D01*
G01X1864909Y-434347D01*
G03X1830044Y-406723I-34865J-8190D01*
G01X1743643Y-406723D01*
G03X1707829Y-442537I0J-35814D01*
G01X1707829Y-523185D01*
G03X1736110Y-558197I35814J0D01*
G03X1715897Y-570565I7534J-35013D01*
G03X1674520Y-522197I-64897J-13635D01*
G01X1674520Y-504051D01*
G03X1680021Y-480304I-48514J23748D01*
G01X1680021Y-342504D01*
G03X1593507Y-299360I-54014J0D01*
G03X1528509Y-299360I-32499J-43143D01*
G03X1471143Y-294553I-32499J-43143D01*
G03X1467111Y-290010I-40133J-31557D01*
G01X1465410Y-288309D01*
G01X1636700Y-288309D01*
G03X1672514Y-252495I0J35814D01*
G01X1672514Y-167494D01*
G03X1636700Y-131680I-35814J0D01*
G01X1436700Y-131680D01*
G03X1433441Y-131829I0J-35814D01*
G01X1319527Y-131829D01*
G03X1314768Y-128120I-24316J-26294D01*
G03X1331025Y-98118I-19557J30002D01*
G01X1331025Y-18118D01*
G03X1295211Y17696I-35814J0D01*
G01X1205211Y17696D01*
G03X1174011Y-534I0J-35814D01*
G03X1142811Y17696I-31200J-17584D01*
G01X1057795Y17696D01*
G03X1064341Y31442I-60337J37168D01*
G03X1081738Y26933I17396J31305D01*
G01X1168138Y26933D01*
G03X1203952Y62747I0J35814D01*
G01X1203952Y143394D01*
G03X1175672Y178407I-35814J0D01*
G03X1203952Y213420I-7534J35013D01*
G01X1203952Y294067D01*
G03X1191669Y321066I-35814J0D01*
G01X1236892Y321066D01*
G01X1236892Y314580D01*
G03X1258013Y281919I35814J0D01*
G03X1255133Y197099I49490J-44140D01*
G03X1236689Y165779I17370J-31320D01*
G01X1236689Y55780D01*
G03X1272503Y19966I35814J0D01*
G01X1342503Y19966D01*
G03X1355001Y22217I0J35814D01*
G03X1367499Y19966I12498J33562D01*
G01X1408036Y19966D01*
G03X1400886Y-1505I28665J-21471D01*
G01X1400886Y-86506D01*
G03X1436700Y-122320I35814J0D01*
G01X1636700Y-122320D01*
G03X1663400Y-110376I0J35814D01*
G03X1813306Y-53213I64054J57163D01*
G01X1813306Y56769D01*
G03X1651072Y95965I-85852J0D01*
G03X1568512Y121238I-57730J-41101D01*
G01X1568512Y165779D01*
G03X1532698Y201593I-35814J0D01*
G01X1462698Y201593D01*
G03X1450099Y199304I0J-35814D01*
G03X1437499Y201593I-12600J-33524D01*
G01X1367499Y201593D01*
G03X1362878Y201294I0J-35814D01*
G03X1357108Y281790I-55375J36486D01*
G03X1378520Y314580I-14402J32791D01*
G01X1378520Y424580D01*
G03X1342706Y460394I-35814J0D01*
G01X1272706Y460394D01*
G03X1236892Y424580I0J-35814D01*
G01X1236892Y418094D01*
G01X1202225Y418094D01*
G01X1202225Y446467D01*
G03X1173945Y481480I-35814J0D01*
G03X1202225Y516492I-7534J35013D01*
G01X1202225Y597140D01*
G03X1166411Y632954I-35814J0D01*
G01X1080011Y632954D01*
G03X1044197Y597140I0J-35814D01*
G01X1044197Y516492D01*
G03X1072477Y481480I35814J0D01*
G03X1044197Y446467I7534J-35013D01*
G01X1044197Y365820D01*
G03X1074697Y330402I35814J0D01*
G01X1074697Y329182D01*
G03X1045924Y294067I7041J-35115D01*
G01X1045924Y213420D01*
G03X1074204Y178407I35814J0D01*
G03X1059121Y171163I7534J-35013D01*
G03X1029664Y181130I-29457J-38547D01*
G01X909719Y181130D01*
G03X895629Y183221I-14090J-46423D01*
G01X831063Y183221D01*
G03X796758Y169012I0J-48514D01*
G01X751103Y123357D01*
G03X736894Y89052I34305J-34305D01*
G01X736894Y-85496D01*
G03X746886Y-114986I48514J0D01*
G01X745159Y-114986D01*
G03X702641Y-114986I-21259J-62814D01*
G01X700799Y-114986D01*
G03X685800Y-118278I0J-35814D01*
G03X670801Y-114986I-14999J-32522D01*
G01X614236Y-114986D01*
G03X578422Y-150800I0J-35814D01*
G01X578422Y-204800D01*
G03X614236Y-240614I35814J0D01*
G01X670801Y-240614D01*
G03X685800Y-237322I0J35814D01*
G03X700799Y-240614I14999J32522D01*
G01X702641Y-240614D01*
G03X745159Y-240614I21259J62814D01*
G01X757365Y-240614D01*
G03X793179Y-204800I0J35814D01*
G01X793179Y-161876D01*
G01X848182Y-216879D01*
G03X882486Y-231088I34305J34305D01*
G01X1016997Y-231088D01*
G01X1016997Y-238122D01*
G03X1052811Y-273936I35814J0D01*
G01X1142811Y-273936D01*
G03X1167127Y-264417I0J35814D01*
G01X1180895Y-264417D01*
G03X1205211Y-273936I24316J26294D01*
G01X1206897Y-273936D01*
G03X1214110Y-283011I43314J27026D01*
G01X1221553Y-290454D01*
G03X1203490Y-299360I14436J-52049D01*
G03X1138492Y-299360I-32499J-43143D01*
G03X1073493Y-299360I-32499J-43143D01*
G03X986979Y-342504I-32499J-43143D01*
G01X986979Y-378355D01*
G01X875030Y-378355D01*
G03X875374Y-373400I-35470J4954D01*
G01X875374Y-287000D01*
G03X839560Y-251186I-35814J0D01*
G01X758913Y-251186D01*
G03X723900Y-279466I0J-35814D01*
G03X688887Y-251186I-35013J-7534D01*
G01X608240Y-251186D01*
G03X572426Y-287000I0J-35814D01*
G01X572426Y-373400D01*
G03X600883Y-408451I35814J0D01*
G01X600883Y-442694D01*
G03X578383Y-475941I13315J-33247D01*
G01X578383Y-565941D01*
G03X600883Y-599188I35814J0D01*
G01X600883Y-622620D01*
G01X589397Y-622620D01*
G03X556514Y-644244I0J-35814D01*
G01X556514Y649986D01*
G01X2059686Y649986D01*
G01X777494Y449834D02*
G01X777494Y389890D01*
G03X949198Y389890I85852J0D01*
G01X949198Y449834D01*
G03X777494Y449834I-85852J0D01*
G01X1541409Y611274D02*
G03X1512613Y625794I-28796J-21294D01*
G01X1432613Y625794D01*
G03X1402611Y609537I0J-35814D01*
G03X1372608Y625794I-30002J-19557D01*
G01X1292609Y625794D01*
G03X1256795Y589980I0J-35814D01*
G01X1256795Y499980D01*
G03X1292609Y464166I35814J0D01*
G01X1372608Y464166D01*
G03X1402611Y480423I0J35814D01*
G03X1432613Y464166I30002J19557D01*
G01X1441564Y464166D01*
G01X1441564Y453494D01*
G03X1426884Y424580I21134J-28914D01*
G01X1426884Y314580D01*
G03X1462698Y278766I35814J0D01*
G01X1532698Y278766D01*
G03X1568512Y314580I0J35814D01*
G01X1568512Y424580D01*
G03X1553832Y453494I-35814J0D01*
G01X1553832Y478686D01*
G01X1586380Y478686D01*
G03X1624732Y490906I0J66294D01*
G01X1652064Y490906D01*
G03X1641602Y449834I75390J-41072D01*
G01X1641602Y389890D01*
G03X1813035Y383080I85852J0D01*
G01X1813035Y300573D01*
G03X1832351Y268786I35814J0D01*
G03X1821884Y243484I25347J-25302D01*
G01X1821884Y103485D01*
G03X1857698Y67671I35814J0D01*
G01X1977697Y67671D01*
G03X2013511Y103485I0J35814D01*
G01X2013511Y243484D01*
G03X2003046Y268784I-35814J0D01*
G03X2022365Y300573I-16495J31789D01*
G01X2022365Y413827D01*
G03X1986551Y449641I-35814J0D01*
G01X1848849Y449641D01*
G03X1813306Y418220I0J-35814D01*
G01X1813306Y449834D01*
G03X1802844Y490906I-85852J0D01*
G01X1814365Y490906D01*
G03X1848849Y464759I34485J9667D01*
G01X1986551Y464759D01*
G03X2022365Y500573I0J35814D01*
G01X2022365Y613827D01*
G03X1986551Y649641I-35814J0D01*
G01X1848849Y649641D01*
G03X1814365Y623494I0J-35814D01*
G01X1598600Y623494D01*
G03X1560248Y611274I0J-66294D01*
G01X1541409Y611274D01*
G01X1702486Y-307099D02*
G01X1702486Y-363664D01*
G03X1738300Y-399478I35814J0D01*
G01X1792300Y-399478D01*
G03X1828114Y-363664I0J35814D01*
G01X1828114Y-307099D01*
G03X1824822Y-292100I-35814J0D01*
G03X1828114Y-277101I-32522J14999D01*
G01X1828114Y-275259D01*
G03X1830391Y-266678I-62814J21259D01*
G03X1857698Y-279319I27307J23173D01*
G01X1977697Y-279319D01*
G03X2013511Y-243505I0J35814D01*
G01X2013511Y-103505D01*
G03X1977697Y-67691I-35814J0D01*
G01X1857698Y-67691D01*
G03X1821884Y-103505I0J-35814D01*
G01X1821884Y-200350D01*
G03X1792300Y-184721I-29583J-20186D01*
G01X1738300Y-184721D01*
G03X1702486Y-220535I0J-35814D01*
G01X1702486Y-232741D01*
G03X1698986Y-254000I62814J-21259D01*
G03X1702486Y-275259I66314J0D01*
G01X1702486Y-277101D01*
G03X1705778Y-292100I35814J0D01*
G03X1702486Y-307099I32522J-14999D01*
G01X589397Y-842635D02*
G03X556514Y-864259I0J-35814D01*
G01X556514Y-812624D01*
G03X589397Y-834248I32883J14190D01*
G01X709397Y-834248D01*
G03X736900Y-821373I0J35814D01*
G03X764403Y-834248I27503J22940D01*
G01X884403Y-834248D01*
G03X920217Y-798434I0J35814D01*
G01X920217Y-658434D01*
G03X884403Y-622620I-35814J0D01*
G01X764403Y-622620D01*
G03X736900Y-635495I0J-35814D01*
G03X709397Y-622620I-27503J-22940D01*
G01X697911Y-622620D01*
G01X697911Y-601562D01*
G03X724200Y-585499I-3713J35621D01*
G03X754202Y-601755I30002J19557D01*
G01X834202Y-601755D01*
G03X870016Y-565941I0J35814D01*
G01X870016Y-475941D01*
G01X870012Y-475383D01*
G01X986979Y-475383D01*
G01X986979Y-480304D01*
G03X1057478Y-531741I54014J0D01*
G01X1057478Y-550313D01*
G01X943595Y-664195D01*
G03X929386Y-698500I34305J-34305D01*
G01X929386Y-856205D01*
G01X918401Y-867190D01*
G03X884403Y-842635I-33998J-11259D01*
G01X764403Y-842635D01*
G03X736900Y-855509I0J-35814D01*
G03X709397Y-842635I-27503J-22940D01*
G01X589397Y-842635D01*
G01X981139Y-14098D02*
G03X1017342Y-13155I16319J68962D01*
G03X1016997Y-18118I35468J-4963D01*
G01X1016997Y-98118D01*
G03X1033254Y-128120I35814J0D01*
G03X1026285Y-134060I19557J-30002D01*
G01X902581Y-134060D01*
G01X899570Y-131049D01*
G03X949198Y-53213I-36224J77836D01*
G01X949198Y2970D01*
G03X981139Y-14098I48260J51894D01*
G01X1154506Y-531741D02*
G03X1181842Y-533217I16485J51437D01*
G03X1205831Y-630560I54148J-38283D01*
G01X1146795Y-689595D01*
G03X1132586Y-723900I34305J-34305D01*
G01X1132586Y-812800D01*
G03X1146795Y-847105I48514J0D01*
G01X1162971Y-863280D01*
G03X1138492Y-873553I8020J-53416D01*
G03X1073493Y-873553I-32499J-43143D01*
G03X1026414Y-864687I-32499J-43143D01*
G01X1026414Y-718595D01*
G01X1140297Y-604712D01*
G03X1154506Y-570408I-34305J34305D01*
G01X1154506Y-531741D01*
G01X2030580Y-876219D02*
G03X2059686Y-861273I0J35814D01*
G01X2059686Y-898473D01*
G03X2031291Y-884485I-28395J-21825D01*
G01X1951291Y-884485D01*
G03X1915477Y-920299I0J-35814D01*
G01X1915477Y-1000298D01*
G03X1917065Y-1010847I35814J0D01*
G01X1862316Y-1010847D01*
G03X1863905Y-1000298I-34225J10548D01*
G01X1863905Y-920299D01*
G03X1828091Y-884485I-35814J0D01*
G01X1748091Y-884485D01*
G03X1737614Y-886051I0J-35814D01*
G01X1737614Y-874862D01*
G03X1747380Y-876219I9766J34457D01*
G01X1827380Y-876219D01*
G03X1863194Y-840405I0J35814D01*
G01X1863194Y-760406D01*
G03X1835894Y-725618I-35814J0D01*
G01X1835894Y-709191D01*
G03X1865858Y-673858I-5850J35333D01*
G01X1865858Y-593210D01*
G03X1837578Y-558197I-35814J0D01*
G03X1864909Y-531375I-7534J35013D01*
G01X1906606Y-531375D01*
G03X1933937Y-558197I34865J8190D01*
G03X1905657Y-593210I7534J-35013D01*
G01X1905657Y-673858D01*
G03X1941471Y-709672I35814J0D01*
G01X1942066Y-709672D01*
G01X1942066Y-725618D01*
G03X1914766Y-760406I8514J-34787D01*
G01X1914766Y-840405D01*
G03X1950580Y-876219I35814J0D01*
G01X2030580Y-876219D01*
G54D11*
G01X641198Y-1346200D02*
G01X575544Y-1346200D01*
G01X641198Y-1346200D02*
G01X641198Y-1275546D01*
G01X641198Y-1346200D02*
G01X641198Y-1416854D01*
G01X649397Y-948449D02*
G01X649397Y-1044103D01*
G01X649397Y-948449D02*
G01X649397Y-852795D01*
G01X794202Y-520941D02*
G01X859856Y-520941D01*
G01X794202Y-520941D02*
G01X794202Y-591595D01*
G01X824403Y-728434D02*
G01X824403Y-824088D01*
G01X824403Y-728434D02*
G01X824403Y-632780D01*
G01X824403Y-728434D02*
G01X910057Y-728434D01*
G01X641497Y-1155941D02*
G01X575843Y-1155941D01*
G01X641497Y-1155941D02*
G01X641497Y-1085287D01*
G01X641497Y-1155941D02*
G01X641497Y-1226595D01*
G01X1170991Y-411404D02*
G01X1170991Y-298649D01*
G01X1170991Y-411404D02*
G01X1170991Y-524158D01*
G01X642518Y-177800D02*
G01X588582Y-177800D01*
G01X642518Y-177800D02*
G01X642518Y-230454D01*
G01X642518Y-177800D02*
G01X642518Y-125146D01*
G01X1991291Y-960298D02*
G01X1925637Y-960298D01*
G01X1991291Y-960298D02*
G01X1991291Y-894645D01*
G01X1765300Y-335382D02*
G01X1765300Y-389318D01*
G01X1765300Y-335382D02*
G01X1817954Y-335382D01*
G01X1765300Y-335382D02*
G01X1712646Y-335382D01*
G01X1917697Y-173505D02*
G01X1917697Y-269159D01*
G01X1917697Y-173505D02*
G01X1917697Y-77851D01*
G01X1917697Y-173505D02*
G01X1832044Y-173505D01*
G01X1917697Y-173505D02*
G01X2003351Y-173505D01*
G01X1402499Y110780D02*
G01X1402499Y191433D01*
G01X1402499Y110780D02*
G01X1402499Y30126D01*
G01X1332608Y544980D02*
G01X1266955Y544980D01*
G01X1332608Y544980D02*
G01X1332608Y615634D01*
G01X1332608Y544980D02*
G01X1332608Y474326D01*
G01X1123211Y556816D02*
G01X1123211Y622794D01*
G01X1123211Y556816D02*
G01X1192065Y556816D01*
G01X1123211Y556816D02*
G01X1054357Y556816D01*
G01X1097811Y-58118D02*
G01X1097811Y7536D01*
G01X1097811Y-58118D02*
G01X1027157Y-58118D01*
G01X1250211Y-58118D02*
G01X1250211Y7536D01*
G01X1250211Y-58118D02*
G01X1320865Y-58118D01*
G01X863346Y1778D02*
G01X939038Y1778D01*
G01X863346Y419862D02*
G01X787654Y419862D01*
G01X863346Y419862D02*
G01X939038Y419862D01*
G01X863346Y419862D02*
G01X863346Y525526D01*
G01X863346Y419862D02*
G01X863346Y314198D01*
G01X1727454Y1778D02*
G01X1803146Y1778D01*
G01X1727454Y1778D02*
G01X1727454Y132461D01*
G01X1727454Y1778D02*
G01X1727454Y-128905D01*
G01X1727454Y419862D02*
G01X1651762Y419862D01*
G01X1727454Y419862D02*
G01X1803146Y419862D01*
G01X1727454Y419862D02*
G01X1727454Y314198D01*
G04 Copper End*

G04 Pad Start*
G54D12*
G01X794202Y-520941D03*
G01X654197Y-520941D03*
G01X781502Y-1155941D03*
G01X641497Y-1155941D03*
G01X781202Y-1346200D03*
G01X641198Y-1346200D03*
G01X1472613Y544980D03*
G01X1332608Y544980D03*
G54D13*
G01X1250211Y-198123D03*
G01X1250211Y-58118D03*
G01X1097811Y-198123D03*
G01X1097811Y-58118D03*
G54D14*
G01X1917697Y173485D03*
G01X1917697Y-173505D03*
G54D16*
G01X1788091Y-960298D03*
G01X1787380Y-800405D03*
G01X1991291Y-960298D03*
G01X1990580Y-800405D03*
G54D17*
G01X642518Y-177800D03*
G01X729082Y-177800D03*
G54D18*
G01X1765300Y-335382D03*
G01X1765300Y-248818D03*
G54D19*
G01X1993900Y-1332636D03*
G01X1993900Y-1181964D03*
G01X1841500Y-1181964D03*
G01X1841500Y-1332636D03*
G54D20*
G01X799236Y-330200D03*
G01X648564Y-330200D03*
G54D19*
G01X1786844Y-633534D03*
G01X1786844Y-482861D03*
G01X1984672Y-633534D03*
G01X1984672Y-482861D03*
G01X1231900Y-1332636D03*
G01X1231900Y-1181964D03*
G01X1689100Y-1332636D03*
G01X1689100Y-1181964D03*
G01X1079500Y-1332636D03*
G01X1079500Y-1181964D03*
G01X927100Y-1332636D03*
G01X927100Y-1181964D03*
G01X1384300Y-1332636D03*
G01X1384300Y-1181964D03*
G01X1536700Y-1332636D03*
G01X1536700Y-1181964D03*
G01X1124938Y103071D03*
G01X1124938Y253743D03*
G01X1123211Y406143D03*
G01X1123211Y556816D03*
G54D21*
G01X1917700Y557200D03*
G01X1917700Y357200D03*
G54D22*
G01X977500Y-1054998D03*
G54D23*
G01X1040994Y-985596D03*
G01X1105992Y-985596D03*
G01X1170991Y-985596D03*
G01X1235989Y-985596D03*
G01X1301013Y-985596D03*
G01X1366012Y-985596D03*
G01X1431011Y-985596D03*
G01X1496009Y-985596D03*
G01X1561008Y-985596D03*
G01X1626006Y-985596D03*
G01X1040994Y-411404D03*
G01X1105992Y-411404D03*
G01X1170991Y-411404D03*
G01X1235989Y-411404D03*
G01X1301013Y-411404D03*
G01X1366012Y-411404D03*
G01X1431011Y-411404D03*
G01X1496009Y-411404D03*
G01X1561008Y-411404D03*
G01X1626006Y-411404D03*
G54D24*
G01X1307503Y110780D03*
G01X1402499Y110780D03*
G01X1497698Y110780D03*
G01X1497698Y369580D03*
G01X1307706Y369580D03*
G54D25*
G01X1536700Y-209994D03*
G01X1536700Y-44005D03*
G54D26*
G01X1727454Y419862D03*
G01X863346Y419862D03*
G54D27*
G01X1727454Y1778D03*
G01X863346Y1778D03*
G54D14*
G01X824403Y-948449D03*
G01X824403Y-728434D03*
G01X649397Y-728434D03*
G01X649397Y-948449D03*
G54D28*
G01X1803400Y-1638300D03*
G01X1549400Y-1638300D03*
G01X1295400Y-1638300D03*
G01X1041400Y-1638300D03*
G01X787400Y-1638300D03*
G04 Pad End*

G04 Via Start*
G54D29*
G01X1498600Y-762000D03*
G01X1689100Y-1181100D03*
G01X1651000Y-584200D03*
G01X1235989Y-571500D03*
G01X1301013Y-520700D03*
G01X1307503Y237780D03*
G01X1497698Y369580D03*
G01X800100Y-342900D03*
G01X1409700Y-673100D03*
G01X1943100Y-1511300D03*
G01X723900Y-177800D03*
G01X1765300Y-254000D03*
G01X1304717Y-1257300D03*
G01X1231900Y-1333500D03*
G01X1257300Y-787400D03*
G01X1917700Y177800D03*
G01X1917700Y254086D03*
G01X641198Y-1346200D03*
G01X1681646Y-1455254D03*
G01X952500Y-292100D03*
G01X1786844Y-482861D03*
G01X1993900Y-1333500D03*
G01X1991278Y-960344D03*
G04 Via End*

G04 Track Start*
G54D11*
G01X824403Y-948449D02*
G01X833051Y-939800D01*
G01X914400Y-939800D01*
G01X977900Y-876300D01*
G01X977900Y-698500D01*
G01X1105992Y-570408D02*
G01X1105992Y-411404D01*
G01X977900Y-698500D02*
G01X1105992Y-570408D01*
G01X649397Y-331033D02*
G01X648564Y-330200D01*
G01X794202Y-520941D02*
G01X800100Y-526839D01*
G01X800100Y-704131D02*
G01X824403Y-728434D01*
G01X800100Y-526839D02*
G01X800100Y-704131D01*
G01X824403Y-728434D02*
G01X649397Y-903440D01*
G01X649397Y-948449D01*
G01X649397Y-1148042D01*
G01X641497Y-1155941D01*
G01X649397Y-426869D02*
G01X1025529Y-426869D01*
G01X1040994Y-411404D01*
G01X649397Y-426869D02*
G01X649397Y-331033D01*
G01X649397Y-728434D02*
G01X649397Y-426869D01*
G01X781502Y-1155941D02*
G01X781502Y-991349D01*
G01X824403Y-948449D01*
G01X1170991Y-985596D02*
G01X1170991Y-1064209D01*
G01X1121460Y-1113740D02*
G01X1024743Y-1113740D01*
G01X956519Y-1181964D01*
G01X927100Y-1181964D01*
G01X1170991Y-1064209D02*
G01X1121460Y-1113740D01*
G01X1079500Y-1181964D02*
G01X1112124Y-1149340D01*
G01X1141343Y-1149340D01*
G01X1235989Y-1054694D02*
G01X1235989Y-985596D01*
G01X1235989Y-1054694D02*
G01X1141343Y-1149340D01*
G01X1384300Y-1181964D02*
G01X1384300Y-1130300D01*
G01X1431011Y-1083589D02*
G01X1431011Y-985596D01*
G01X1384300Y-1130300D02*
G01X1431011Y-1083589D01*
G01X1366012Y-985596D02*
G01X1366012Y-1059688D01*
G01X1243736Y-1181964D02*
G01X1231900Y-1181964D01*
G01X1366012Y-1059688D02*
G01X1243736Y-1181964D01*
G01X1536700Y-1143000D02*
G01X1536700Y-1181964D01*
G01X1496009Y-985596D02*
G01X1496009Y-1102309D01*
G01X1536700Y-1143000D01*
G01X1841500Y-1181964D02*
G01X1764436Y-1104900D01*
G01X1561008Y-1078408D02*
G01X1561008Y-985596D01*
G01X1764436Y-1104900D02*
G01X1587500Y-1104900D01*
G01X1561008Y-1078408D01*
G01X1699621Y-1059361D02*
G01X1948361Y-1059361D01*
G01X1993900Y-1104900D01*
G01X1993900Y-1181964D01*
G01X1626006Y-985746D02*
G01X1699621Y-1059361D01*
G01X977500Y-1003700D02*
G01X977500Y-1054998D01*
G01X1040994Y-985596D02*
G01X995604Y-985596D01*
G01X977500Y-1003700D01*
G01X977500Y-1054998D02*
G01X913502Y-1054998D01*
G01X850900Y-1276502D02*
G01X781202Y-1346200D01*
G01X913502Y-1054998D02*
G01X850900Y-1117600D01*
G01X850900Y-1276502D01*
G01X1841500Y-1332636D02*
G01X1690827Y-1181964D01*
G01X1689100Y-1181964D01*
G01X1990580Y-800405D02*
G01X1990580Y-639442D01*
G01X1984672Y-633534D01*
G01X1786844Y-633534D02*
G01X1787380Y-634070D01*
G01X1787380Y-800405D01*
G01X1786844Y-482861D02*
G01X1984672Y-482861D01*
G01X1496009Y-411404D02*
G01X1498600Y-413995D01*
G01X1498600Y-762000D01*
G01X1689100Y-1181100D02*
G01X1689100Y-1181964D01*
G01X1123211Y406143D02*
G01X1123211Y255471D01*
G01X1124938Y253743D01*
G01X1159774Y369580D02*
G01X1123211Y406143D01*
G01X1307706Y369580D02*
G01X1159774Y369580D01*
G01X1788091Y-960298D02*
G01X1734998Y-960298D01*
G01X1689100Y-914400D01*
G01X1689100Y-838200D01*
G01X1561008Y-710108D01*
G01X1561008Y-411404D01*
G01X1626006Y-411404D02*
G01X1626006Y-559206D01*
G01X1651000Y-584200D01*
G54D30*
G01X1466111Y-198415D02*
G01X1465819Y-198123D01*
G54D11*
G01X1235989Y-411404D02*
G01X1235989Y-571500D01*
G54D31*
G01X1497698Y369580D02*
G01X1497698Y519895D01*
G01X1472613Y544980D01*
G54D32*
G01X1332608Y544980D02*
G01X1135047Y544980D01*
G01X1123211Y556816D01*
G54D33*
G01X1497698Y110780D02*
G01X1497698Y97915D01*
G01X1495270Y95487D01*
G01X1495270Y-3266D01*
G54D34*
G01X1402499Y110780D02*
G01X1402499Y30899D01*
G01X1308100Y-63500D01*
G01X1103193Y-63500D02*
G01X1097811Y-58118D01*
G54D33*
G01X1495270Y-3266D02*
G01X1536009Y-44005D01*
G01X1536700Y-44005D01*
G54D34*
G01X1332608Y544980D02*
G01X1392013Y485575D01*
G01X1392013Y483163D01*
G01X1402499Y472677D01*
G01X1402499Y110780D01*
G54D11*
G01X1473200Y-838200D02*
G01X1574800Y-838200D01*
G01X1626006Y-889406D01*
G01X1626006Y-985596D01*
G01X1409700Y-673100D02*
G01X1409700Y-774700D01*
G01X1473200Y-838200D01*
G54D30*
G01X1598600Y557200D02*
G01X1917700Y557200D01*
G01X1472613Y544980D02*
G01X1586380Y544980D01*
G01X1598600Y557200D01*
G54D11*
G01X1384300Y-1332636D02*
G01X1384300Y-1397000D01*
G01X1295400Y-1485900D02*
G01X1295400Y-1638300D01*
G01X1384300Y-1397000D02*
G01X1295400Y-1485900D01*
G01X1536700Y-1332636D02*
G01X1549400Y-1345336D01*
G01X1549400Y-1638300D01*
G01X927100Y-1332636D02*
G01X927100Y-1358900D01*
G01X787400Y-1498600D02*
G01X787400Y-1638300D01*
G01X927100Y-1358900D02*
G01X787400Y-1498600D01*
G01X1079500Y-1332636D02*
G01X1079500Y-1600200D01*
G01X1041400Y-1638300D01*
G01X1879600Y-1638300D02*
G01X1803400Y-1638300D01*
G01X1250211Y-246911D02*
G01X1250211Y-198123D01*
G54D30*
G01X1465819Y-198123D02*
G01X1250211Y-198123D01*
G01X1097811Y-198123D01*
G54D34*
G01X1308100Y-63500D02*
G01X1103193Y-63500D01*
G54D11*
G01X1304717Y-1257300D02*
G01X1613764Y-1257300D01*
G01X1689100Y-1332636D01*
G54D32*
G01X1431011Y-411404D02*
G01X1431011Y-326111D01*
G01X1384300Y-279400D01*
G01X1282700Y-279400D01*
G01X1250211Y-246911D01*
G54D11*
G01X1307503Y237780D02*
G01X1307503Y110780D01*
G54D35*
G01X1917700Y177800D02*
G01X1917700Y173487D01*
G01X1917700Y357200D02*
G01X1917700Y254086D01*
G01X1917700Y177800D01*
G54D11*
G01X641497Y-1155941D02*
G01X641497Y-1345900D01*
G01X641198Y-1346200D01*
G01X1943100Y-1511300D02*
G01X1943100Y-1574800D01*
G01X1879600Y-1638300D01*
G01X1993900Y-1332636D02*
G01X1904136Y-1422400D01*
G01X1824077Y-1422400D01*
G03X1782723Y-1422400I-20677J-105900D01*
G01X1714500Y-1422400D01*
G01X1681646Y-1455254D01*
G01X1029664Y132616D02*
G01X897720Y132616D01*
G01X895629Y134707D01*
G01X831063Y134707D01*
G01X785408Y89052D01*
G01X785408Y-85496D01*
G01X1124938Y103071D02*
G01X1059209Y103071D01*
G01X1029664Y132616D01*
G01X785408Y-85496D02*
G01X882486Y-182574D01*
G01X1082263Y-182574D01*
G01X1097811Y-198123D01*
G01X723900Y-177800D02*
G01X729082Y-177800D01*
G01X1170991Y-411404D02*
G01X1170991Y-320091D01*
G01X1143000Y-292100D01*
G01X952500Y-292100D01*
G01X800100Y-342900D02*
G01X800100Y-331064D01*
G01X799236Y-330200D01*
G01X1917697Y-173505D02*
G01X1742415Y1778D01*
G01X1727454Y1778D01*
G01X1917697Y-182984D02*
G01X1917697Y-173505D01*
G01X1765300Y-335382D02*
G01X1788281Y-312400D01*
G01X1823700Y-276981D02*
G01X1917697Y-182984D01*
G01X1788281Y-312400D02*
G01X1796458Y-312400D01*
G01X1823700Y-285158D01*
G01X1823700Y-276981D01*
G01X1993900Y-1333500D02*
G01X1993900Y-1332636D01*
G54D36*
G01X1431011Y-550189D02*
G01X1431011Y-411404D01*
G01X1257300Y-787400D02*
G01X1257300Y-723900D01*
G01X1431011Y-550189D01*
G54D11*
G01X1301013Y-411404D02*
G01X1301013Y-520700D01*
G01X1366012Y-411404D02*
G01X1366012Y-538988D01*
G01X1364161Y-881561D02*
G01X1364161Y-983745D01*
G01X1366012Y-985596D01*
G01X1366012Y-538988D02*
G01X1193800Y-711200D01*
G01X1193800Y-825500D01*
G01X1219200Y-850900D01*
G01X1333500Y-850900D01*
G01X1364161Y-881561D01*
G04 Track End*

M02*

