G04 Layer: TopPasteMaskLayer*
G04 EasyEDA Pro v3.2.91, 2026-03-21 00:40:43*
G04 Gerber Generator version 0.3*
G04 Scale: 100 percent, Rotated: No, Reflected: No*
G04 Dimensions in millimeters*
G04 Leading zeros omitted, absolute positions, 4 integers and 5 decimals*
G04 Generated by one-click*
%FSLAX45Y45*%
%MOMM*%
%ADD10R,0.8X0.9*%
%ADD11R,0.9X0.8*%
%ADD12R,1.2X1.4*%
%ADD13R,0.8X0.8*%
%ADD14O,0.36401X1.74201*%
%ADD15R,0.7X1.1*%
%ADD16R,2.0X0.85001*%
%ADD17O,1.6042X3.79999*%
%ADD18O,1.6X3.79999*%
G75*


G04 PolygonModel Start*
G36*
G01X672300Y-154800D02*
G01X672300Y-200800D01*
G01X668299Y-204800D01*
G01X618236Y-204800D01*
G01X614236Y-200800D01*
G01X614236Y-154800D01*
G01X618236Y-150800D01*
G01X668299Y-150800D01*
G01X672300Y-154800D01*
G37*
G36*
G01X699300Y-154800D02*
G01X703301Y-150800D01*
G01X753364Y-150800D01*
G01X757365Y-154800D01*
G01X757365Y-200800D01*
G01X753364Y-204800D01*
G01X703301Y-204800D01*
G01X699300Y-200800D01*
G01X699300Y-154800D01*
G37*
G36*
G01X1742300Y-305600D02*
G01X1788300Y-305600D01*
G01X1792300Y-309601D01*
G01X1792300Y-359664D01*
G01X1788300Y-363664D01*
G01X1742300Y-363664D01*
G01X1738300Y-359664D01*
G01X1738300Y-309601D01*
G01X1742300Y-305600D01*
G37*
G36*
G01X1742300Y-278600D02*
G01X1738300Y-274599D01*
G01X1738300Y-224536D01*
G01X1742300Y-220535D01*
G01X1788300Y-220535D01*
G01X1792300Y-224536D01*
G01X1792300Y-274599D01*
G01X1788300Y-278600D01*
G01X1742300Y-278600D01*
G37*
G36*
G01X2038899Y-1376802D02*
G01X2033897Y-1381801D01*
G01X1953898Y-1381801D01*
G01X1948899Y-1376802D01*
G01X1948899Y-1296802D01*
G01X1953898Y-1291801D01*
G01X1978101Y-1291801D01*
G01X1978101Y-1328801D01*
G01X2011101Y-1328801D01*
G01X2011101Y-1291801D01*
G01X2033897Y-1291801D01*
G01X2038899Y-1296802D01*
G01X2038899Y-1376802D01*
G37*
G36*
G01X2033897Y-1221801D02*
G01X2011101Y-1221801D01*
G01X2011101Y-1183803D01*
G01X1978101Y-1183803D01*
G01X1978101Y-1221801D01*
G01X1953898Y-1221801D01*
G01X1948899Y-1216802D01*
G01X1948899Y-1137803D01*
G01X1953898Y-1132802D01*
G01X2033897Y-1132802D01*
G01X2038899Y-1137803D01*
G01X2038899Y-1216802D01*
G01X2033897Y-1221801D01*
G37*
G36*
G01X1796501Y-1137798D02*
G01X1801503Y-1132799D01*
G01X1881502Y-1132799D01*
G01X1886501Y-1137798D01*
G01X1886501Y-1217798D01*
G01X1881502Y-1222799D01*
G01X1857299Y-1222799D01*
G01X1857299Y-1185799D01*
G01X1824299Y-1185799D01*
G01X1824299Y-1222799D01*
G01X1801503Y-1222799D01*
G01X1796501Y-1217798D01*
G01X1796501Y-1137798D01*
G37*
G36*
G01X1801503Y-1292799D02*
G01X1824299Y-1292799D01*
G01X1824299Y-1330797D01*
G01X1857299Y-1330797D01*
G01X1857299Y-1292799D01*
G01X1881502Y-1292799D01*
G01X1886501Y-1297798D01*
G01X1886501Y-1376797D01*
G01X1881502Y-1381798D01*
G01X1801503Y-1381798D01*
G01X1796501Y-1376797D01*
G01X1796501Y-1297798D01*
G01X1801503Y-1292799D01*
G37*
G36*
G01X843402Y-285201D02*
G01X848401Y-290203D01*
G01X848401Y-370202D01*
G01X843402Y-375201D01*
G01X763402Y-375201D01*
G01X758401Y-370202D01*
G01X758401Y-345999D01*
G01X795401Y-345999D01*
G01X795401Y-312999D01*
G01X758401Y-312999D01*
G01X758401Y-290203D01*
G01X763402Y-285201D01*
G01X843402Y-285201D01*
G37*
G36*
G01X688401Y-290203D02*
G01X688401Y-312999D01*
G01X650403Y-312999D01*
G01X650403Y-345999D01*
G01X688401Y-345999D01*
G01X688401Y-370202D01*
G01X683402Y-375201D01*
G01X604403Y-375201D01*
G01X599402Y-370202D01*
G01X599402Y-290203D01*
G01X604403Y-285201D01*
G01X683402Y-285201D01*
G01X688401Y-290203D01*
G37*
G36*
G01X1831842Y-677699D02*
G01X1826841Y-682698D01*
G01X1746841Y-682698D01*
G01X1741843Y-677699D01*
G01X1741843Y-597700D01*
G01X1746841Y-592698D01*
G01X1771045Y-592698D01*
G01X1771045Y-629699D01*
G01X1804045Y-629699D01*
G01X1804045Y-592698D01*
G01X1826841Y-592698D01*
G01X1831842Y-597700D01*
G01X1831842Y-677699D01*
G37*
G36*
G01X1826841Y-522698D02*
G01X1804045Y-522698D01*
G01X1804045Y-484700D01*
G01X1771045Y-484700D01*
G01X1771045Y-522698D01*
G01X1746841Y-522698D01*
G01X1741843Y-517700D01*
G01X1741843Y-438701D01*
G01X1746841Y-433699D01*
G01X1826841Y-433699D01*
G01X1831842Y-438701D01*
G01X1831842Y-517700D01*
G01X1826841Y-522698D01*
G37*
G36*
G01X2029670Y-677699D02*
G01X2024669Y-682698D01*
G01X1944669Y-682698D01*
G01X1939670Y-677699D01*
G01X1939670Y-597700D01*
G01X1944669Y-592698D01*
G01X1968873Y-592698D01*
G01X1968873Y-629699D01*
G01X2001873Y-629699D01*
G01X2001873Y-592698D01*
G01X2024669Y-592698D01*
G01X2029670Y-597700D01*
G01X2029670Y-677699D01*
G37*
G36*
G01X2024669Y-522698D02*
G01X2001873Y-522698D01*
G01X2001873Y-484700D01*
G01X1968873Y-484700D01*
G01X1968873Y-522698D01*
G01X1944669Y-522698D01*
G01X1939670Y-517700D01*
G01X1939670Y-438701D01*
G01X1944669Y-433699D01*
G01X2024669Y-433699D01*
G01X2029670Y-438701D01*
G01X2029670Y-517700D01*
G01X2024669Y-522698D01*
G37*
G36*
G01X1276899Y-1376802D02*
G01X1271897Y-1381801D01*
G01X1191898Y-1381801D01*
G01X1186899Y-1376802D01*
G01X1186899Y-1296802D01*
G01X1191898Y-1291801D01*
G01X1216101Y-1291801D01*
G01X1216101Y-1328801D01*
G01X1249101Y-1328801D01*
G01X1249101Y-1291801D01*
G01X1271897Y-1291801D01*
G01X1276899Y-1296802D01*
G01X1276899Y-1376802D01*
G37*
G36*
G01X1271897Y-1221801D02*
G01X1249101Y-1221801D01*
G01X1249101Y-1183803D01*
G01X1216101Y-1183803D01*
G01X1216101Y-1221801D01*
G01X1191898Y-1221801D01*
G01X1186899Y-1216802D01*
G01X1186899Y-1137803D01*
G01X1191898Y-1132802D01*
G01X1271897Y-1132802D01*
G01X1276899Y-1137803D01*
G01X1276899Y-1216802D01*
G01X1271897Y-1221801D01*
G37*
G36*
G01X1734099Y-1376802D02*
G01X1729097Y-1381801D01*
G01X1649098Y-1381801D01*
G01X1644099Y-1376802D01*
G01X1644099Y-1296802D01*
G01X1649098Y-1291801D01*
G01X1673301Y-1291801D01*
G01X1673301Y-1328801D01*
G01X1706301Y-1328801D01*
G01X1706301Y-1291801D01*
G01X1729097Y-1291801D01*
G01X1734099Y-1296802D01*
G01X1734099Y-1376802D01*
G37*
G36*
G01X1729097Y-1221801D02*
G01X1706301Y-1221801D01*
G01X1706301Y-1183803D01*
G01X1673301Y-1183803D01*
G01X1673301Y-1221801D01*
G01X1649098Y-1221801D01*
G01X1644099Y-1216802D01*
G01X1644099Y-1137803D01*
G01X1649098Y-1132802D01*
G01X1729097Y-1132802D01*
G01X1734099Y-1137803D01*
G01X1734099Y-1216802D01*
G01X1729097Y-1221801D01*
G37*
G36*
G01X1124499Y-1376802D02*
G01X1119497Y-1381801D01*
G01X1039498Y-1381801D01*
G01X1034499Y-1376802D01*
G01X1034499Y-1296802D01*
G01X1039498Y-1291801D01*
G01X1063701Y-1291801D01*
G01X1063701Y-1328801D01*
G01X1096701Y-1328801D01*
G01X1096701Y-1291801D01*
G01X1119497Y-1291801D01*
G01X1124499Y-1296802D01*
G01X1124499Y-1376802D01*
G37*
G36*
G01X1119497Y-1221801D02*
G01X1096701Y-1221801D01*
G01X1096701Y-1183803D01*
G01X1063701Y-1183803D01*
G01X1063701Y-1221801D01*
G01X1039498Y-1221801D01*
G01X1034499Y-1216802D01*
G01X1034499Y-1137803D01*
G01X1039498Y-1132802D01*
G01X1119497Y-1132802D01*
G01X1124499Y-1137803D01*
G01X1124499Y-1216802D01*
G01X1119497Y-1221801D01*
G37*
G36*
G01X972099Y-1376802D02*
G01X967097Y-1381801D01*
G01X887098Y-1381801D01*
G01X882099Y-1376802D01*
G01X882099Y-1296802D01*
G01X887098Y-1291801D01*
G01X911301Y-1291801D01*
G01X911301Y-1328801D01*
G01X944301Y-1328801D01*
G01X944301Y-1291801D01*
G01X967097Y-1291801D01*
G01X972099Y-1296802D01*
G01X972099Y-1376802D01*
G37*
G36*
G01X967097Y-1221801D02*
G01X944301Y-1221801D01*
G01X944301Y-1183803D01*
G01X911301Y-1183803D01*
G01X911301Y-1221801D01*
G01X887098Y-1221801D01*
G01X882099Y-1216802D01*
G01X882099Y-1137803D01*
G01X887098Y-1132802D01*
G01X967097Y-1132802D01*
G01X972099Y-1137803D01*
G01X972099Y-1216802D01*
G01X967097Y-1221801D01*
G37*
G36*
G01X1429299Y-1376802D02*
G01X1424297Y-1381801D01*
G01X1344298Y-1381801D01*
G01X1339299Y-1376802D01*
G01X1339299Y-1296802D01*
G01X1344298Y-1291801D01*
G01X1368501Y-1291801D01*
G01X1368501Y-1328801D01*
G01X1401501Y-1328801D01*
G01X1401501Y-1291801D01*
G01X1424297Y-1291801D01*
G01X1429299Y-1296802D01*
G01X1429299Y-1376802D01*
G37*
G36*
G01X1424297Y-1221801D02*
G01X1401501Y-1221801D01*
G01X1401501Y-1183803D01*
G01X1368501Y-1183803D01*
G01X1368501Y-1221801D01*
G01X1344298Y-1221801D01*
G01X1339299Y-1216802D01*
G01X1339299Y-1137803D01*
G01X1344298Y-1132802D01*
G01X1424297Y-1132802D01*
G01X1429299Y-1137803D01*
G01X1429299Y-1216802D01*
G01X1424297Y-1221801D01*
G37*
G36*
G01X1581699Y-1376802D02*
G01X1576697Y-1381801D01*
G01X1496698Y-1381801D01*
G01X1491699Y-1376802D01*
G01X1491699Y-1296802D01*
G01X1496698Y-1291801D01*
G01X1520901Y-1291801D01*
G01X1520901Y-1328801D01*
G01X1553901Y-1328801D01*
G01X1553901Y-1291801D01*
G01X1576697Y-1291801D01*
G01X1581699Y-1296802D01*
G01X1581699Y-1376802D01*
G37*
G36*
G01X1576697Y-1221801D02*
G01X1553901Y-1221801D01*
G01X1553901Y-1183803D01*
G01X1520901Y-1183803D01*
G01X1520901Y-1221801D01*
G01X1496698Y-1221801D01*
G01X1491699Y-1216802D01*
G01X1491699Y-1137803D01*
G01X1496698Y-1132802D01*
G01X1576697Y-1132802D01*
G01X1581699Y-1137803D01*
G01X1581699Y-1216802D01*
G01X1576697Y-1221801D01*
G37*
G36*
G01X1169937Y58905D02*
G01X1164935Y53906D01*
G01X1084936Y53906D01*
G01X1079937Y58905D01*
G01X1079937Y138905D01*
G01X1084936Y143906D01*
G01X1109139Y143906D01*
G01X1109139Y106906D01*
G01X1142139Y106906D01*
G01X1142139Y143906D01*
G01X1164935Y143906D01*
G01X1169937Y138905D01*
G01X1169937Y58905D01*
G37*
G36*
G01X1079939Y297909D02*
G01X1084941Y302908D01*
G01X1164941Y302908D01*
G01X1169939Y297909D01*
G01X1169939Y217909D01*
G01X1164941Y212908D01*
G01X1140737Y212908D01*
G01X1140737Y249908D01*
G01X1107737Y249908D01*
G01X1107737Y212908D01*
G01X1084941Y212908D01*
G01X1079939Y217909D01*
G01X1079939Y297909D01*
G37*
G36*
G01X1168210Y361978D02*
G01X1163208Y356979D01*
G01X1083208Y356979D01*
G01X1078210Y361978D01*
G01X1078210Y441978D01*
G01X1083208Y446979D01*
G01X1107412Y446979D01*
G01X1107412Y409979D01*
G01X1140412Y409979D01*
G01X1140412Y446979D01*
G01X1163208Y446979D01*
G01X1168210Y441978D01*
G01X1168210Y361978D01*
G37*
G36*
G01X1078212Y600982D02*
G01X1083213Y605981D01*
G01X1163213Y605981D01*
G01X1168212Y600982D01*
G01X1168212Y520982D01*
G01X1163213Y515981D01*
G01X1139010Y515981D01*
G01X1139010Y552981D01*
G01X1106010Y552981D01*
G01X1106010Y515981D01*
G01X1083213Y515981D01*
G01X1078212Y520982D01*
G01X1078212Y600982D01*
G37*
G36*
G01X1981700Y287198D02*
G01X1853702Y287198D01*
G01X1848701Y292199D01*
G01X1848701Y407200D01*
G01X1853702Y412199D01*
G01X1894705Y412702D01*
G01X1894705Y367701D01*
G01X1939704Y367701D01*
G01X1939704Y411701D01*
G01X1981700Y412199D01*
G01X1986702Y407200D01*
G01X1986702Y292199D01*
G01X1981700Y287198D01*
G37*
G36*
G01X1981700Y502199D02*
G01X1939704Y502201D01*
G01X1939704Y546699D01*
G01X1894705Y546699D01*
G01X1894705Y502702D01*
G01X1853702Y502199D01*
G01X1848701Y507200D01*
G01X1848701Y622198D01*
G01X1853702Y627200D01*
G01X1981700Y627200D01*
G01X1986702Y622198D01*
G01X1986702Y507200D01*
G01X1981700Y502199D01*
G37*

G04 Pad Start*
G54D10*
G01X794202Y-520941D03*
G01X654197Y-520941D03*
G01X781502Y-1155941D03*
G01X641497Y-1155941D03*
G01X781202Y-1346200D03*
G01X641198Y-1346200D03*
G01X1472613Y544980D03*
G01X1332608Y544980D03*
G54D11*
G01X1250211Y-198123D03*
G01X1250211Y-58118D03*
G01X1097811Y-198123D03*
G01X1097811Y-58118D03*
G54D12*
G01X1917697Y173485D03*
G01X1917697Y-173505D03*
G54D13*
G01X1788091Y-960298D03*
G01X1787380Y-800405D03*
G01X1991291Y-960298D03*
G01X1990580Y-800405D03*
G54D14*
G01X1040994Y-985596D03*
G01X1105992Y-985596D03*
G01X1170991Y-985596D03*
G01X1235989Y-985596D03*
G01X1301013Y-985596D03*
G01X1366012Y-985596D03*
G01X1431011Y-985596D03*
G01X1496009Y-985596D03*
G01X1561008Y-985596D03*
G01X1626006Y-985596D03*
G01X1040994Y-411404D03*
G01X1105992Y-411404D03*
G01X1170991Y-411404D03*
G01X1235989Y-411404D03*
G01X1301013Y-411404D03*
G01X1366012Y-411404D03*
G01X1431011Y-411404D03*
G01X1496009Y-411404D03*
G01X1561008Y-411404D03*
G01X1626006Y-411404D03*
G54D15*
G01X1307503Y110780D03*
G01X1402499Y110780D03*
G01X1497698Y110780D03*
G01X1497698Y369580D03*
G01X1307706Y369580D03*
G54D16*
G01X1536700Y-209994D03*
G01X1536700Y-44005D03*
G54D12*
G01X824403Y-948449D03*
G01X824403Y-728434D03*
G01X649397Y-728434D03*
G01X649397Y-948449D03*
G54D18*
G01X1803400Y-1638300D03*
G01X1549400Y-1638300D03*
G01X1295400Y-1638300D03*
G01X1041400Y-1638300D03*
G01X787400Y-1638300D03*
G04 Pad End*

M02*

