G04 Layer: TopSolderMaskLayer*
G04 EasyEDA Pro v3.2.91, 2026-03-21 00:40:43*
G04 Gerber Generator version 0.3*
G04 Scale: 100 percent, Rotated: No, Reflected: No*
G04 Dimensions in millimeters*
G04 Leading zeros omitted, absolute positions, 4 integers and 5 decimals*
G04 Generated by one-click*
%FSLAX45Y45*%
%MOMM*%
%AMRoundRect*1,1,$1,$2,$3*1,1,$1,$4,$5*1,1,$1,0-$2,0-$3*1,1,$1,0-$4,0-$5*20,1,$1,$2,$3,$4,$5,0*20,1,$1,$4,$5,0-$2,0-$3,0*20,1,$1,0-$2,0-$3,0-$4,0-$5,0*20,1,$1,0-$4,0-$5,$2,$3,0*4,1,4,$2,$3,$4,$5,0-$2,0-$3,0-$4,0-$5,$2,$3,0*%
%ADD10RoundRect,0.1016X-0.4X0.45X0.4X0.45*%
%ADD11RoundRect,0.1016X-0.45X-0.4X-0.45X0.4*%
%ADD12RoundRect,0.1016X-0.6X-0.7X-0.6X0.7*%
%ADD13RoundRect,0.1016X-0.4X0.4X0.4X0.4*%
%ADD14RoundRect,0.1016X-0.28283X0.27X0.28283X0.27*%
%ADD15RoundRect,0.1016X-0.27X-0.28283X-0.27X0.28283*%
%ADD16RoundRect,0.1016X-0.432X-0.40324X-0.432X0.40324*%
%ADD17RoundRect,0.1006X-0.40324X0.432X0.40324X0.432*%
%ADD18RoundRect,0.1016X-0.40324X0.432X0.40324X0.432*%
%ADD19RoundRect,0.1016X-0.68851X-0.56627X-0.68851X0.56627*%
%ADD20C,0.6016*%
%ADD21O,0.46561X1.84361*%
%ADD22RoundRect,0.1016X-0.35X-0.55X-0.35X0.55*%
%ADD23RoundRect,0.1016X-1.0X-0.42501X-1.0X0.42501*%
%ADD24O,1.10236X1.7018*%
%ADD25O,1.10236X2.20218*%
%ADD26O,1.7016X3.90159*%
G75*


G04 Pad Start*
G54D10*
G01X794202Y-520941D03*
G01X654197Y-520941D03*
G01X781502Y-1155941D03*
G01X641497Y-1155941D03*
G01X781202Y-1346200D03*
G01X641198Y-1346200D03*
G01X1472613Y544980D03*
G01X1332608Y544980D03*
G54D11*
G01X1250211Y-198123D03*
G01X1250211Y-58118D03*
G01X1097811Y-198123D03*
G01X1097811Y-58118D03*
G54D12*
G01X1917697Y173485D03*
G01X1917697Y-173505D03*
G54D13*
G01X1788091Y-960298D03*
G01X1787380Y-800405D03*
G01X1991291Y-960298D03*
G01X1990580Y-800405D03*
G54D14*
G01X642518Y-177800D03*
G01X729082Y-177800D03*
G54D15*
G01X1765300Y-335382D03*
G01X1765300Y-248818D03*
G54D16*
G01X1993900Y-1332636D03*
G01X1993900Y-1181964D03*
G01X1841500Y-1181964D03*
G01X1841500Y-1332636D03*
G54D18*
G01X799236Y-330200D03*
G01X648564Y-330200D03*
G54D16*
G01X1786844Y-633534D03*
G01X1786844Y-482861D03*
G01X1984672Y-633534D03*
G01X1984672Y-482861D03*
G01X1231900Y-1332636D03*
G01X1231900Y-1181964D03*
G01X1689100Y-1332636D03*
G01X1689100Y-1181964D03*
G01X1079500Y-1332636D03*
G01X1079500Y-1181964D03*
G01X927100Y-1332636D03*
G01X927100Y-1181964D03*
G01X1384300Y-1332636D03*
G01X1384300Y-1181964D03*
G01X1536700Y-1332636D03*
G01X1536700Y-1181964D03*
G01X1124938Y103071D03*
G01X1124938Y253743D03*
G01X1123211Y406143D03*
G01X1123211Y556816D03*
G54D19*
G01X1917700Y557200D03*
G01X1917700Y357200D03*
G54D20*
G01X977500Y-1054998D03*
G54D21*
G01X1040994Y-985596D03*
G01X1105992Y-985596D03*
G01X1170991Y-985596D03*
G01X1235989Y-985596D03*
G01X1301013Y-985596D03*
G01X1366012Y-985596D03*
G01X1431011Y-985596D03*
G01X1496009Y-985596D03*
G01X1561008Y-985596D03*
G01X1626006Y-985596D03*
G01X1040994Y-411404D03*
G01X1105992Y-411404D03*
G01X1170991Y-411404D03*
G01X1235989Y-411404D03*
G01X1301013Y-411404D03*
G01X1366012Y-411404D03*
G01X1431011Y-411404D03*
G01X1496009Y-411404D03*
G01X1561008Y-411404D03*
G01X1626006Y-411404D03*
G54D22*
G01X1307503Y110780D03*
G01X1402499Y110780D03*
G01X1497698Y110780D03*
G01X1497698Y369580D03*
G01X1307706Y369580D03*
G54D23*
G01X1536700Y-209994D03*
G01X1536700Y-44005D03*
G54D24*
G01X1727454Y419862D03*
G01X863346Y419862D03*
G54D25*
G01X1727454Y1778D03*
G01X863346Y1778D03*
G54D12*
G01X824403Y-948449D03*
G01X824403Y-728434D03*
G01X649397Y-728434D03*
G01X649397Y-948449D03*
G54D26*
G01X1803400Y-1638300D03*
G01X1549400Y-1638300D03*
G01X1295400Y-1638300D03*
G01X1041400Y-1638300D03*
G01X787400Y-1638300D03*
G04 Pad End*

M02*

